<?xml version="1.0" encoding="UTF-8"?>
<svg id="Calque_7" data-name="Calque 7" xmlns="http://www.w3.org/2000/svg" xmlns:xlink="http://www.w3.org/1999/xlink" viewBox="0 0 841.89 595.28">
  <defs>
    <style>
      .cls-1 {
        font-family: FuturaBT-Light, 'Futura Lt BT';
        font-size: 12px;
        font-weight: 300;
      }

      .cls-1, .cls-2 {
        fill: #fff;
      }

      .cls-3 {
        fill: #e2504b;
      }

      .cls-4 {
        stroke: #fff;
        stroke-miterlimit: 10;
      }

      .cls-4, .cls-5 {
        fill: none;
      }

      .cls-6 {
        clip-path: url(#clippath-1);
      }

      .cls-7 {
        fill: #282828;
      }

      .cls-8 {
        letter-spacing: -.03em;
      }

      .cls-9 {
        fill: #fdfdfd;
      }

      .cls-10 {
        clip-path: url(#clippath);
      }

      .cls-2 {
        font-family: Futura-Bold, Futura;
        font-size: 50px;
        font-weight: 700;
      }
    </style>
    <clipPath id="clippath">
      <rect class="cls-5" x="-20.05" y="-14.17" width="881.99" height="623.62"/>
    </clipPath>
    <clipPath id="clippath-1">
      <rect class="cls-5" x="-20.05" y="-14.17" width="881.99" height="623.62"/>
    </clipPath>
  </defs>
  <rect class="cls-7" x="-20.05" y="-14.17" width="870.24" height="623.62"/>
  <rect class="cls-3" x="-20.05" y="414.5" width="104.95" height="78.1"/>
  <g class="cls-10">
    <path class="cls-9" d="m689.83,93.6c-1.65.73-2.64,1.55-2.97,2.47-.32.91-.48,2.97-.48,6.17,0,2.35.13,3.84.4,4.46.26.62.72.93,1.36.93,1.13,0,1.69-.93,1.69-2.81v-11.23Zm0-2.86v-4.24c0-1.17-.48-1.76-1.43-1.76-1.3,0-1.95.89-1.95,2.66,0,.99-.11,1.71-.34,2.13-.23.42-.74.79-1.54,1.09-.8.3-1.65.45-2.56.45-1.86,0-2.79-.99-2.79-2.99,0-1.87.81-3.4,2.43-4.59,1.62-1.18,3.73-1.78,6.34-1.78,1.71,0,3.25.23,4.62.7,1.37.47,2.46,1.26,3.28,2.37.82,1.11,1.23,2.33,1.23,3.66v20.04c.03.1.25.32.66.66.29.22.44.54.44.97,0,.59-.08,1-.24,1.24-.16.24-.55.46-1.17.67-.62.21-1.4.31-2.34.31-1.14,0-2.09-.21-2.85-.63-.76-.42-1.35-1.23-1.78-2.45-1.27,1.32-2.31,2.16-3.1,2.53-.79.37-1.6.55-2.44.55-1.86,0-3.29-.73-4.31-2.18-1.02-1.46-1.53-3.84-1.53-7.14,0-3.3.48-5.6,1.43-6.88.95-1.28,2.81-2.46,5.58-3.54,1.76-.67,3.21-1.29,4.37-1.84"/>
    <path class="cls-9" d="m710.43,98.85l2.48-12.05c.04-.25.07-.49.07-.73,0-.61-.24-1.08-.73-1.39-.29-.18-.44-.5-.44-.97v-1.19c0-.34.17-.51.5-.51h4.21c.33,0,.54.04.62.12.08.08.12.3.12.65v1.05c0,.29-.01.48-.03.55-.02.07-.2.22-.54.44-.47.32-.8.97-.99,1.95l-4.6,23.24c-.25,1.3-.41,2.01-.47,2.13-.07.12-.27.17-.6.17h-3.77c-.2-.03-.42-.61-.66-1.76l-4.83-24.29c-.15-.7-.38-1.19-.7-1.45-.4-.34-.59-.64-.59-.9,0-1.01.04-1.58.13-1.71s.36-.2.81-.2h7.71c.42,0,.71.09.85.27.14.18.21.63.21,1.33,0,.41-.03.67-.1.79-.07.12-.26.26-.58.44-.39.22-.59.53-.59.92,0,.28.04.62.13,1.01l2.39,12.05Z"/>
    <path class="cls-9" d="m730.11,93.6c-1.66.73-2.64,1.55-2.97,2.47-.32.91-.48,2.97-.48,6.17,0,2.35.13,3.84.4,4.46.26.62.72.93,1.36.93,1.13,0,1.69-.93,1.69-2.81v-11.23Zm0-2.86v-4.24c0-1.17-.48-1.76-1.43-1.76-1.3,0-1.95.89-1.95,2.66,0,.99-.11,1.71-.34,2.13-.23.42-.74.79-1.54,1.09-.8.3-1.65.45-2.56.45-1.86,0-2.79-.99-2.79-2.99,0-1.87.81-3.4,2.43-4.59,1.62-1.18,3.73-1.78,6.34-1.78,1.71,0,3.25.23,4.62.7,1.37.47,2.46,1.26,3.28,2.37.82,1.11,1.23,2.33,1.23,3.66v20.04c.03.1.25.32.66.66.29.22.44.54.44.97,0,.59-.08,1-.24,1.24-.16.24-.55.46-1.17.67-.62.21-1.4.31-2.34.31-1.14,0-2.09-.21-2.85-.63-.76-.42-1.35-1.23-1.78-2.45-1.27,1.32-2.31,2.16-3.1,2.53-.79.37-1.6.55-2.44.55-1.86,0-3.29-.73-4.31-2.18-1.02-1.46-1.53-3.84-1.53-7.14,0-3.3.48-5.6,1.43-6.88.95-1.28,2.81-2.46,5.58-3.54,1.76-.67,3.21-1.29,4.37-1.84"/>
    <path class="cls-9" d="m748.76,85.01c1.74-2.2,3.73-3.29,5.97-3.29,1.53,0,2.7.49,3.51,1.48.81.99,1.21,2.23,1.21,3.72v21.04c0,.47.18.83.55,1.08.34.21.51.73.51,1.58,0,.67-.06,1.08-.17,1.21-.11.13-.34.2-.69.2h-6.17c-.88-.75-1.32-1.72-1.32-2.92v-20.89c0-1.14-.47-1.71-1.41-1.71-.61,0-1.28.32-2,.97v20.49c0,.53.26.94.77,1.23.31.18.46.5.46.97v1.12c0,.5-.36.75-1.08.75h-7.8c-.38,0-.62-.05-.73-.16-.1-.11-.15-.39-.15-.82v-.81c0-.42.13-.73.4-.9.35-.25.58-.48.68-.7.1-.22.15-.7.15-1.45v-21.48c0-.51-.25-.89-.75-1.12-.28-.13-.42-.37-.42-.7v-1.16c0-.45.21-.68.61-.68h7.16c.31,0,.5.04.57.13s.11.27.11.55v2.31Z"/>
    <path class="cls-9" d="m773.88,82.53l1.21,6.08c.03.19.04.36.04.51,0,.41-.39.61-1.19.61-.53,0-.91-.07-1.15-.2-.24-.13-.52-.48-.82-1.05-.35-.67-.89-1.47-1.6-2.39-.72-.92-1.36-1.38-1.93-1.38-.22,0-.41.1-.58.31-.17.2-.25.45-.25.72,0,.74,1.07,2.86,3.21,6.34,1.84,3.03,3.1,5.4,3.76,7.13.66,1.73.99,3.67.99,5.84,0,2.3-.5,4.09-1.49,5.37-1,1.28-2.17,1.92-3.51,1.92-.85,0-1.74-.31-2.68-.92-.51-.34-.86-.51-1.03-.51-.2,0-.32.17-.35.51-.06.4-.15.65-.26.76-.12.11-.5.17-1.14.17-.5,0-.82-.07-.97-.22-.15-.15-.25-.4-.31-.77l-1.1-6.13c-.04-.29-.07-.48-.07-.55,0-.41.49-.61,1.47-.61.51,0,.87.07,1.07.2.2.13.45.51.76,1.14,1.14,2.39,2.22,3.58,3.25,3.58.66,0,.99-.4.99-1.18,0-.7-.24-1.57-.73-2.61-.49-1.04-1.45-2.74-2.87-5.11-1.49-2.52-2.57-4.62-3.24-6.32-.67-1.7-1-3.4-1-5.11,0-2.33.5-4.06,1.49-5.2,1-1.14,2.2-1.71,3.62-1.71.75,0,1.6.26,2.55.77.48.26.81.39.99.39.23,0,.37-.15.42-.46.06-.32.18-.52.35-.59.17-.07.55-.11,1.12-.11.37,0,.6.04.71.12.11.08.21.31.3.69"/>
  </g>
  <polygon class="cls-9" points="662.58 55.24 662.58 88.21 659.89 55.3 654.93 113.39 651.76 113.39 651.76 55.24 662.58 55.24"/>
  <g class="cls-6">
    <path class="cls-9" d="m664.84,113.03c-.07.1-.13.21-.21.3l-2.05-25.12-2.69-32.9v-.07h.01c.7-.01,1.36-.01,1.97,0,.24,0,.49,0,.72.01,8.49.21,8.4,2.1,9.16,4.07,1.53,4.01-3.45,8.94-3.5,17.48-.02,5.13,2.49,6.83,3.73,11.57,1.3,5,1.03,12.84-7.13,24.66"/>
    <line class="cls-4" x1="103.9" y1="486.7" x2="861.94" y2="486.7"/>
  </g>
  <rect class="cls-3" x="805.4" y="-14.17" width="6.72" height="550.61"/>
  <text class="cls-2" transform="translate(103.9 466.37)"><tspan x="0" y="0">Charte Graphique</tspan></text>
  <text class="cls-1" transform="translate(107.98 505.27)"><tspan class="cls-8" x="0" y="0">P</tspan><tspan x="5.58" y="0">résentation de la charte graphique pour l’identité visuelle de la commune de Bavans. </tspan></text>
  <text class="cls-1" transform="translate(107.98 519.67)"><tspan x="0" y="0">Réalisée par Justine Duval en décembre 2022. </tspan></text>
</svg>