<?xml version="1.0" encoding="UTF-8"?>
<svg id="Calque_7" data-name="Calque 7" xmlns="http://www.w3.org/2000/svg" xmlns:xlink="http://www.w3.org/1999/xlink" viewBox="0 0 297.64 297.64">
  <defs>
    <style>
      .cls-1 {
        clip-path: url(#clippath-1);
      }

      .cls-2 {
        fill: #282828;
      }

      .cls-3 {
        fill: #fdfdfd;
      }

      .cls-4 {
        clip-path: url(#clippath);
      }

      .cls-5 {
        fill: none;
      }
    </style>
    <clipPath id="clippath">
      <rect class="cls-5" x="39.49" y="97.46" width="218.66" height="102.72"/>
    </clipPath>
    <clipPath id="clippath-1">
      <rect class="cls-5" x="39.49" y="97.46" width="218.66" height="102.72"/>
    </clipPath>
  </defs>
  <rect class="cls-2" y="0" width="297.64" height="297.64"/>
  <g>
    <g class="cls-4">
      <path class="cls-3" d="m106.74,165.23c-2.92,1.29-4.67,2.74-5.24,4.36-.57,1.61-.85,5.25-.85,10.9,0,4.16.23,6.79.7,7.88.47,1.1,1.27,1.65,2.41,1.65,1.99,0,2.99-1.65,2.99-4.96v-19.83Zm0-5.04v-7.49c0-2.07-.84-3.1-2.52-3.1-2.3,0-3.45,1.57-3.45,4.7,0,1.76-.2,3.01-.6,3.76-.4.75-1.31,1.39-2.71,1.92-1.41.53-2.92.79-4.52.79-3.28,0-4.93-1.76-4.93-5.27,0-3.31,1.43-6.01,4.29-8.11,2.86-2.09,6.59-3.14,11.19-3.14,3.03,0,5.75.41,8.17,1.24,2.42.83,4.35,2.22,5.8,4.19,1.44,1.96,2.17,4.12,2.17,6.47v35.39c.05.18.44.57,1.16,1.16.52.39.78.96.78,1.71,0,1.03-.14,1.76-.43,2.19-.28.43-.98.82-2.08,1.18-1.1.36-2.48.54-4.13.54-2.02,0-3.7-.37-5.04-1.11-1.34-.74-2.39-2.18-3.14-4.33-2.25,2.33-4.07,3.82-5.47,4.46-1.4.65-2.83.97-4.3.97-3.28,0-5.82-1.29-7.62-3.86-1.8-2.57-2.7-6.78-2.7-12.61,0-5.84.84-9.89,2.52-12.15,1.68-2.26,4.96-4.35,9.85-6.26,3.1-1.19,5.68-2.27,7.72-3.26"/>
      <path class="cls-3" d="m143.12,174.5l4.37-21.28c.08-.44.12-.87.12-1.28,0-1.09-.43-1.91-1.28-2.45-.52-.31-.78-.88-.78-1.71v-2.09c0-.6.3-.89.89-.89h7.43c.59,0,.96.07,1.1.21.14.14.21.52.21,1.14v1.86c0,.52-.02.84-.06.97-.04.13-.36.39-.95.78-.83.57-1.41,1.72-1.75,3.45l-8.13,41.04c-.44,2.3-.72,3.56-.83,3.76-.12.21-.47.31-1.07.31h-6.67c-.36-.05-.75-1.09-1.16-3.1l-8.53-42.91c-.26-1.24-.67-2.09-1.24-2.56-.7-.6-1.05-1.13-1.05-1.59,0-1.78.08-2.79.23-3.03s.63-.35,1.44-.35h13.61c.75,0,1.25.16,1.49.48.25.32.37,1.11.37,2.35,0,.72-.06,1.19-.17,1.4-.12.21-.46.47-1.03.78-.7.39-1.05.93-1.05,1.63,0,.49.08,1.09.23,1.78l4.23,21.29Z"/>
      <path class="cls-3" d="m177.89,165.23c-2.92,1.29-4.67,2.74-5.24,4.36s-.85,5.25-.85,10.9c0,4.16.23,6.79.7,7.88.47,1.1,1.27,1.65,2.41,1.65,1.99,0,2.99-1.65,2.99-4.96v-19.83Zm0-5.04v-7.49c0-2.07-.84-3.1-2.52-3.1-2.3,0-3.45,1.57-3.45,4.7,0,1.76-.2,3.01-.6,3.76-.4.75-1.31,1.39-2.71,1.92-1.41.53-2.92.79-4.52.79-3.28,0-4.93-1.76-4.93-5.27,0-3.31,1.43-6.01,4.29-8.11,2.86-2.09,6.59-3.14,11.19-3.14,3.03,0,5.75.41,8.17,1.24,2.42.83,4.35,2.22,5.8,4.19,1.44,1.96,2.17,4.12,2.17,6.47v35.39c.05.18.44.57,1.16,1.16.52.39.78.96.78,1.71,0,1.03-.14,1.76-.43,2.19-.28.43-.98.82-2.08,1.18-1.1.36-2.48.54-4.13.54-2.02,0-3.7-.37-5.04-1.11-1.34-.74-2.39-2.18-3.14-4.33-2.25,2.33-4.07,3.82-5.47,4.46-1.4.65-2.83.97-4.3.97-3.28,0-5.82-1.29-7.62-3.86-1.8-2.57-2.7-6.78-2.7-12.61,0-5.84.84-9.89,2.52-12.15,1.68-2.26,4.96-4.35,9.85-6.26,3.1-1.19,5.68-2.27,7.72-3.26"/>
      <path class="cls-3" d="m210.82,150.06c3.08-3.88,6.59-5.82,10.55-5.82,2.7,0,4.77.87,6.2,2.62,1.43,1.75,2.14,3.94,2.14,6.58v37.16c0,.83.32,1.46.97,1.9.59.36.89,1.29.89,2.79,0,1.19-.1,1.9-.29,2.13s-.6.35-1.22.35h-10.9c-1.55-1.32-2.33-3.04-2.33-5.16v-36.89c0-2.02-.83-3.03-2.48-3.03-1.08,0-2.26.57-3.53,1.71v36.2c0,.93.45,1.66,1.36,2.17.54.31.81.88.81,1.71v1.98c0,.88-.63,1.32-1.9,1.32h-13.77c-.67,0-1.1-.1-1.28-.29-.18-.19-.27-.68-.27-1.46v-1.43c0-.75.23-1.28.7-1.59.62-.44,1.02-.85,1.2-1.24.18-.39.27-1.24.27-2.56v-37.94c0-.91-.44-1.57-1.32-1.98-.49-.23-.74-.65-.74-1.24v-2.06c0-.8.36-1.2,1.08-1.2h12.65c.54,0,.88.08,1.01.23.13.16.19.48.19.97v4.07Z"/>
      <path class="cls-3" d="m255.2,145.68l2.13,10.75c.05.34.08.63.08.89,0,.72-.7,1.09-2.09,1.09-.93,0-1.61-.12-2.04-.35-.43-.23-.91-.85-1.46-1.86-.62-1.19-1.56-2.6-2.83-4.23-1.27-1.63-2.41-2.44-3.41-2.44-.39,0-.73.18-1.03.54-.3.36-.45.79-.45,1.28,0,1.31,1.89,5.05,5.66,11.2,3.26,5.35,5.47,9.55,6.63,12.6,1.16,3.05,1.75,6.49,1.75,10.31,0,4.06-.88,7.22-2.64,9.48-1.76,2.26-3.83,3.39-6.21,3.39-1.5,0-3.08-.54-4.73-1.63-.9-.6-1.51-.89-1.82-.89-.36,0-.57.3-.62.89-.1.7-.26,1.14-.47,1.34-.21.19-.88.29-2.02.29-.88,0-1.45-.13-1.71-.39-.26-.26-.44-.71-.54-1.36l-1.94-10.82c-.08-.52-.12-.84-.12-.97,0-.72.87-1.09,2.6-1.09.9,0,1.53.12,1.88.35.35.23.79.9,1.34,2.02,2.02,4.21,3.93,6.32,5.74,6.32,1.16,0,1.75-.7,1.75-2.09,0-1.24-.43-2.78-1.3-4.61-.87-1.84-2.55-4.85-5.06-9.03-2.64-4.44-4.55-8.17-5.72-11.16-1.18-3-1.76-6.01-1.76-9.03,0-4.11.88-7.17,2.64-9.19,1.76-2.02,3.89-3.02,6.4-3.02,1.32,0,2.82.45,4.5,1.36.85.47,1.43.7,1.75.7.41,0,.66-.27.74-.81.1-.57.31-.92.62-1.05.31-.13.97-.19,1.98-.19.65,0,1.07.07,1.26.21.19.14.37.55.52,1.22"/>
    </g>
    <polygon class="cls-3" points="39.49 97.47 39.49 200.18 45.09 200.18 53.84 97.59 58.6 155.7 58.6 97.47 39.49 97.47"/>
    <g class="cls-1">
      <path class="cls-3" d="m62.59,199.55c-.11.17-.23.36-.36.54l-3.63-44.38-4.76-58.12v-.11h.02c1.23-.02,2.4-.02,3.47,0,.42,0,.86,0,1.27.02,15,.36,14.83,3.7,16.17,7.19,2.7,7.08-6.1,15.79-6.18,30.87-.04,9.06,4.39,12.07,6.58,20.43,2.3,8.83,1.82,22.68-12.59,43.56"/>
    </g>
  </g>
</svg>