<svg xmlns="http://www.w3.org/2000/svg" viewBox="0 0 208.74 98.06"><defs><style>.cls-1{fill:#1d1d1b;}</style></defs><g id="Calque_2" data-name="Calque 2"><g id="Calque_1-2" data-name="Calque 1"><path class="cls-1" d="M64.2,59.89V52.74c0-2-.8-3-2.41-3q-3.28,0-3.29,4.48a8,8,0,0,1-.58,3.59,4.57,4.57,0,0,1-2.59,1.83,12.06,12.06,0,0,1-4.31.76q-4.71,0-4.71-5a9.22,9.22,0,0,1,4.09-7.74q4.1-3,10.69-3a23.92,23.92,0,0,1,7.79,1.18,11.16,11.16,0,0,1,5.54,4A10.25,10.25,0,0,1,76.5,56V89.81c0,.17.42.54,1.11,1.11a1.93,1.93,0,0,1,.74,1.63,3.93,3.93,0,0,1-.41,2.09,3.79,3.79,0,0,1-2,1.13,12.69,12.69,0,0,1-3.95.52,10,10,0,0,1-4.81-1.05,7.15,7.15,0,0,1-3-4.13A20.42,20.42,0,0,1,59,95.37a9.8,9.8,0,0,1-4.11.92,8.39,8.39,0,0,1-7.28-3.68Q45,88.94,45,80.57T47.43,69q2.4-3.24,9.4-6C59.79,61.86,62.25,60.83,64.2,59.89Zm0,4.81q-4.19,1.85-5,4.16t-.81,10.41q0,6,.66,7.53a2.35,2.35,0,0,0,2.3,1.57q2.85,0,2.85-4.74Z"/><path class="cls-1" d="M98.93,73.55l4.18-20.32a7.49,7.49,0,0,0,.11-1.23A2.58,2.58,0,0,0,102,49.67a1.73,1.73,0,0,1-.74-1.63V46a.75.75,0,0,1,.84-.85h7.1c.56,0,.92.06,1,.2s.21.5.21,1.09v1.78a4,4,0,0,1-.06.92c0,.13-.34.38-.91.75a5,5,0,0,0-1.66,3.29L100.07,92.4a26.78,26.78,0,0,1-.8,3.6c-.11.19-.45.29-1,.29H91.89c-.34-.05-.71-1-1.11-3l-8.14-41a4.13,4.13,0,0,0-1.18-2.44,2.27,2.27,0,0,1-1-1.52,9.17,9.17,0,0,1,.22-2.89c.15-.22.61-.33,1.37-.33H95a1.73,1.73,0,0,1,1.43.46,4.44,4.44,0,0,1,.35,2.24,3.12,3.12,0,0,1-.17,1.33,2.48,2.48,0,0,1-1,.74,1.73,1.73,0,0,0-1,1.56,8,8,0,0,0,.23,1.7Z"/><path class="cls-1" d="M132.12,59.89V52.74c0-2-.8-3-2.41-3q-3.29,0-3.29,4.48a8,8,0,0,1-.58,3.59,4.57,4.57,0,0,1-2.59,1.83,12,12,0,0,1-4.31.76q-4.71,0-4.71-5a9.2,9.2,0,0,1,4.1-7.74c2.72-2,6.29-3,10.68-3a24,24,0,0,1,7.8,1.18,11.18,11.18,0,0,1,5.53,4A10.25,10.25,0,0,1,144.42,56V89.81a4.28,4.28,0,0,0,1.11,1.11,1.93,1.93,0,0,1,.74,1.63,3.93,3.93,0,0,1-.41,2.09,3.79,3.79,0,0,1-2,1.13,12.62,12.62,0,0,1-3.94.52,10,10,0,0,1-4.82-1.05,7.15,7.15,0,0,1-3-4.13,20.42,20.42,0,0,1-5.22,4.26,9.76,9.76,0,0,1-4.11.92,8.39,8.39,0,0,1-7.28-3.68q-2.57-3.67-2.57-12T115.35,69q2.4-3.24,9.4-6C127.71,61.86,130.17,60.83,132.12,59.89Zm0,4.81q-4.18,1.85-5,4.16t-.81,10.41q0,6,.66,7.53a2.35,2.35,0,0,0,2.3,1.57q2.85,0,2.85-4.74Z"/><path class="cls-1" d="M163.56,50.22q4.41-5.55,10.08-5.55a7.18,7.18,0,0,1,5.91,2.5,9.54,9.54,0,0,1,2,6.27V88.92a2.08,2.08,0,0,0,.92,1.82c.57.34.86,1.23.86,2.66a4.24,4.24,0,0,1-.28,2,1.54,1.54,0,0,1-1.17.33h-10.4a6.13,6.13,0,0,1-2.23-4.92V55.63c0-1.93-.79-2.89-2.37-2.89a5.26,5.26,0,0,0-3.37,1.63V88.92a2.3,2.3,0,0,0,1.3,2.08,1.71,1.71,0,0,1,.78,1.63v1.88c0,.84-.61,1.26-1.82,1.26H150.67a1.83,1.83,0,0,1-1.22-.27,2.36,2.36,0,0,1-.26-1.39V92.74a1.69,1.69,0,0,1,.67-1.52A3.39,3.39,0,0,0,151,90a7.14,7.14,0,0,0,.26-2.44V51.37A2,2,0,0,0,150,49.48a1.2,1.2,0,0,1-.71-1.18v-2c0-.76.35-1.14,1-1.14h12.07c.52,0,.84.07,1,.22a1.58,1.58,0,0,1,.18.92Z"/><path class="cls-1" d="M205.93,46l2,10.26a5.48,5.48,0,0,1,.07.85c0,.69-.67,1-2,1a4.25,4.25,0,0,1-1.94-.33,4.4,4.4,0,0,1-1.39-1.78A27.8,27.8,0,0,0,200,52c-1.21-1.56-2.29-2.34-3.25-2.34a1.29,1.29,0,0,0-1,.52,1.88,1.88,0,0,0-.42,1.22q0,1.89,5.41,10.7a80.69,80.69,0,0,1,6.33,12A27.5,27.5,0,0,1,208.74,84c0,3.87-.83,6.89-2.51,9a7.38,7.38,0,0,1-5.93,3.24,8.35,8.35,0,0,1-4.52-1.55,4.35,4.35,0,0,0-1.74-.85c-.34,0-.54.28-.59.85A2.4,2.4,0,0,1,193,96a3.66,3.66,0,0,1-1.93.28,2.43,2.43,0,0,1-1.63-.37,2.32,2.32,0,0,1-.52-1.29l-1.85-10.34c-.07-.49-.11-.8-.11-.92,0-.69.83-1,2.48-1a3.53,3.53,0,0,1,1.8.33,5.5,5.5,0,0,1,1.27,1.93c1.93,4,3.76,6,5.48,6,1.12,0,1.67-.67,1.67-2a10.72,10.72,0,0,0-1.24-4.4q-1.25-2.64-4.83-8.63A76.54,76.54,0,0,1,188.14,65a23.33,23.33,0,0,1-1.69-8.63q0-5.88,2.52-8.77a7.82,7.82,0,0,1,6.11-2.88,9.34,9.34,0,0,1,4.3,1.29,4.49,4.49,0,0,0,1.66.67c.4,0,.63-.26.71-.78a1.2,1.2,0,0,1,.59-1,6.12,6.12,0,0,1,1.89-.18,2.29,2.29,0,0,1,1.2.2A2.16,2.16,0,0,1,205.93,46Z"/><polygon points="18.24 0.01 18.24 55.61 13.7 0.12 5.35 98.06 0 98.06 0 0.01 18.24 0.01"/><path class="cls-1" d="M22.05,97.46c-.11.16-.22.35-.34.51L18.24,55.61,13.7.12V0H17c.41,0,.83,0,1.21,0C32.57.38,32.4,3.57,33.68,6.9c2.59,6.76-5.82,15.08-5.89,29.47,0,8.65,4.19,11.52,6.28,19.51C36.27,64.31,35.81,77.53,22.05,97.46Z"/></g></g></svg>