<?xml version="1.0" encoding="UTF-8"?>
<svg id="Post_3" data-name="Post 3" xmlns="http://www.w3.org/2000/svg" viewBox="0 0 2160 1080">
  <defs>
    <style>
      .cls-1 {
        fill: #722828;
      }

      .cls-2 {
        fill: #bfdbe6;
      }

      .cls-3 {
        fill: #ddeeec;
      }

      .cls-4 {
        fill: #4d4c4c;
        opacity: .21;
      }

      .cls-5 {
        fill: #fff;
      }

      .cls-6 {
        fill: #7e8087;
      }

      .cls-7 {
        fill: #7b9da7;
      }

      .cls-7, .cls-8 {
        stroke: #1c2839;
      }

      .cls-7, .cls-8, .cls-9, .cls-10 {
        stroke-miterlimit: 10;
      }

      .cls-7, .cls-8, .cls-10 {
        stroke-width: 3px;
      }

      .cls-8, .cls-9 {
        fill: none;
      }

      .cls-11 {
        fill: #8ac4e7;
      }

      .cls-12 {
        fill: #140c09;
      }

      .cls-13 {
        fill: #5ab0e3;
      }

      .cls-14 {
        fill: #818ca6;
      }

      .cls-15 {
        fill: #ce603a;
      }

      .cls-16 {
        fill: #7ca493;
      }

      .cls-17, .cls-18 {
        fill: #0f283a;
      }

      .cls-19 {
        fill: #6fbfa2;
      }

      .cls-20 {
        fill: #f2f8f8;
      }

      .cls-21 {
        fill: #0b7fa4;
      }

      .cls-22 {
        fill: #a7bfc4;
      }

      .cls-23 {
        fill: #524d9a;
      }

      .cls-24 {
        fill: #69b296;
      }

      .cls-18 {
        opacity: .17;
      }

      .cls-9 {
        opacity: .3;
        stroke: #e0f0f0;
        stroke-width: .5px;
      }

      .cls-25 {
        fill: #282828;
      }

      .cls-26 {
        fill: #cc493b;
      }

      .cls-27 {
        fill: #131429;
      }

      .cls-28 {
        fill: #dc2b2a;
      }

      .cls-29 {
        fill: #e0f0f0;
      }

      .cls-30 {
        fill: #dbedef;
      }

      .cls-31 {
        fill: #2a7255;
      }

      .cls-32 {
        fill: #300f0d;
      }

      .cls-33 {
        fill: #2b2b2b;
      }

      .cls-34 {
        fill: #23396a;
      }

      .cls-35 {
        fill: #9ad8c0;
      }

      .cls-36 {
        fill: #351e27;
      }

      .cls-37 {
        fill: #1c91c9;
      }

      .cls-38 {
        fill: #32496e;
      }

      .cls-39 {
        fill: #5aa888;
      }

      .cls-40 {
        fill: #388c6c;
      }

      .cls-41 {
        fill: #050606;
      }

      .cls-42 {
        fill: #cc503b;
      }

      .cls-43 {
        fill: #515a71;
      }

      .cls-44 {
        fill: #0f1a2b;
      }

      .cls-45 {
        fill: #225e44;
      }

      .cls-46 {
        fill: #e1f1f7;
      }

      .cls-10 {
        fill: #17102d;
        stroke: #af1915;
      }

      .cls-47 {
        fill: #bad2e6;
      }

      .cls-48 {
        fill: #1e1d1d;
      }

      .cls-49 {
        fill: #accde2;
      }

      .cls-50 {
        fill: #ebeded;
      }
    </style>
  </defs>
  <rect class="cls-13" x="835.6" y="-13.38" width="1329.19" height="537.19"/>
  <g>
    <polygon class="cls-30" points="2102.03 261.72 2063.68 285.98 2080.32 280.36 2102.03 261.72"/>
    <polygon class="cls-30" points="1963.77 279.08 1947.85 284.23 1949.28 288.34 1963.77 279.08"/>
    <polygon class="cls-30" points="1502.54 258.02 1488.45 268.62 1490.62 277.25 1502.54 258.02"/>
    <polygon class="cls-30" points="1462.71 200.32 1419.39 211.81 1434.79 214.79 1462.71 200.32"/>
    <polygon class="cls-30" points="1715.98 316.74 1669.21 318.28 1683.05 321.85 1715.98 316.74"/>
    <polygon class="cls-30" points="1940.11 261.72 1790.15 334.7 1820.66 337.68 1940.11 261.72"/>
  </g>
  <polygon class="cls-34" points="2165.56 283.8 2165.56 440.32 1106.28 440.32 1106.28 210.53 1127.73 192.66 1148.66 190.11 1163.3 198.11 1210.62 169.17 1233.6 194.36 1234.45 180.4 1255.73 183.98 1297.6 158.11 1307.98 229.59 1314.45 173.93 1349.35 168.49 1365.69 219.89 1372.66 202.19 1434.79 214.79 1462.71 200.32 1467.64 236.4 1481.09 236.4 1490.62 277.25 1502.54 258.02 1535.05 261.68 1562.03 261.85 1597 299.64 1683.05 321.85 1715.98 316.74 1757.09 331.04 1820.66 337.68 1940.11 261.72 1949.28 288.34 1963.77 279.08 1988.35 276.85 2027.73 318.28 2024.15 299.38 2080.32 280.36 2102.03 261.72 2147.05 296.74 2144.07 279.89 2165.56 283.8"/>
  <g>
    <polygon class="cls-30" points="1866.83 422.06 1986.76 362.32 1897.02 421.17 1866.83 422.06"/>
    <polygon class="cls-30" points="1803.32 424.23 1762.92 430.23 1767.72 434.7 1803.32 424.23"/>
    <polygon class="cls-30" points="2076.64 378.79 2029.56 388.83 2041.66 391.68 2076.64 378.79"/>
  </g>
  <polygon class="cls-21" points="2164.46 385.68 2125.4 397.55 2076.64 378.79 2041.66 391.68 1986.76 362.32 1897.02 421.17 1803.32 424.23 1767.72 434.7 1758.89 426.28 1718.04 415.04 1633.53 399.98 1600.34 380.57 1554.38 398.19 1484.68 376.74 1477.78 363.47 1448.17 363.21 1356 333.09 1334.55 351.21 1345.02 307.04 1270.98 342.02 1219.91 336.15 1119.83 408.66 1084.9 402.62 1084.9 933.34 2164.91 590.51 2164.46 385.68"/>
  <rect class="cls-20" x="1085.3" y="537.85" width="512.43" height="311.74"/>
  <path class="cls-20" d="m1087.09,61.19l57.96-26.83s48.77,72.26,88.6,81.96c39.83,9.7,626.81,435.32,626.81,435.32l-329.36,268.09-477.19-266.55,33.19-491.98Z"/>
  <path class="cls-46" d="m2166.83,1067.89l-1083.06-.77s868.6-678.64,1081.7-638.81l1.36,639.57Z"/>
  <polygon class="cls-33" points="1207 667.81 1093.02 579.03 1109.98 562.96 1242.92 669.85 1207 667.81"/>
  <polyline class="cls-26" points="1086.78 584.08 1096.19 576.57 1206.83 661.85 1206.83 675.13 1086.78 584.08"/>
  <polyline class="cls-32" points="1100.21 565.09 1100.99 555.67 1104.61 552.81 1107.81 555.47 1107.77 565.17 1105.16 569.23 1100.21 565.09"/>
  <polygon class="cls-32" points="1107.77 565.17 1238.14 669.63 1246.57 669.85 1107.81 555.47 1107.77 565.17"/>
  <path class="cls-30" d="m1082.76,362.64s-.36-5.04,6.11-5.81c6.47-.77-4.47-36-4.47-36v-14.17s19.91,51.57,20.81,57.06c.89,5.49,25.7,74.47,19.57,80.43-6.13,5.96-42.03-48.77-42.03-48.77v-32.74"/>
  <path class="cls-30" d="m1084.53,295.3s36.13,70.09,39.83,55.4c3.7-14.68-29.02-84.6-29.02-84.6,0,0-7.32-24-3.91-26.04s33.19,42.38,33.19,42.38c0,0,19.57,20.94-7.32-47.83-26.89-68.77-28.94-70.3-28.94-70.3,0,0-4.34-.26-3.57,4.09s0,53.62,0,53.62l-.26,73.28Z"/>
  <path class="cls-30" d="m1190.24,130.36s94.21,181.53,145.53,197.62c51.32,16.09-62.81-116.43-62.81-116.43,0,0-35.23-58.21-82.72-81.19Z"/>
  <path class="cls-30" d="m1217.81,239.89l175.4,225.96s-94.21-180.77-175.4-225.96Z"/>
  <path class="cls-30" d="m1154.24,199.3l212.17,333.96s-109.53-284.94-212.17-333.96Z"/>
  <path class="cls-30" d="m1184.87,400.74l112.6,235.15s-4.6-159.32-112.6-235.15Z"/>
  <rect class="cls-46" x="1084.79" y="843.98" width="312.51" height="156.77"/>
  <polygon class="cls-2" points="1084.62 880.83 1318.66 885.34 1232.36 1010.96 1084.79 924.4 1084.62 880.83"/>
  <rect class="cls-46" x="1086.15" y="1041.94" width="54.98" height="513.36"/>
  <g>
    <g>
      <rect class="cls-13" x="2.08" y="-95.09" width="1080.64" height="485.52"/>
      <g>
        <path class="cls-46" d="m4.81,538.21s101.15,99.14,387.5,71.96c286.35-27.18,704.66-9.88,702.17,1.24-2.49,11.12-2.18,267.78-2.18,267.78L3.56,1045.03l1.24-506.83Z"/>
        <path class="cls-20" d="m1084.63,115.31s-8.96,14.82-8.73,17.91c.23,3.09-95.51,161.07-95.51,161.07l-243.92,334.41,137.75-7.1,210.33,72.58.08-578.87Z"/>
        <polygon class="cls-38" points="4.8 181.48 46.88 196.25 4.8 230.59 4.8 181.48"/>
        <path class="cls-34" d="m4.6,214.84s54.55-19.46,106.9-62.54C163.86,109.21,272.26,12.38,272.26,12.38c0,0,59.76,30.11,84.32,59.3,24.55,29.19,39.84,44.01,40.77,73.66s33.82,69.03,33.82,69.03c0,0,138.06-71.81,138.98-127.87.93-56.06,278.43,179.75,278.43,179.75l-203.53,275.96s-208.17,55.59-266.23,60.54c-58.06,4.94-213.73-11.12-213.73-11.12l-34.59,3.78s-102.23-24.48-125.7-57.22l-.19-323.37Z"/>
        <path class="cls-37" d="m132.35,596.12l33.36,10.04s4.63-10.81,92.96-1.54c88.33,9.27,128.79-16.99,128.79-16.99,0,0,81.23-23.47,104.08-21.93,22.86,1.54,110.57,20.69,110.57,20.69,0,0,103.47-10.81,172.96-66.4,69.49-55.59,92.96-28.72,92.96-28.72,0,0,119.84-1.54,185.93-249.86l-68.03,51.5s74.12-66.48,80.84-78.53c6.72-12.05,8.11-47.02,8.11-47.02l1.31-36.21s-97.6,80.61-109.33,96.98c-11.74,16.37,2.16-49.11,2.16-49.11,0,0-135.28,111.19-198.28,125.09-63.01,13.9-204.77,190.56-204.77,190.56,0,0-9.57,44.78-150.72,52.2-141.15,7.41-282.91,49.26-282.91,49.26Z"/>
        <path class="cls-21" d="m166.52,604.72s74.55-21.66,89.99-12.55c15.44,9.11,115.2-.85,115.2-.85,0,0,50.08-18.31,69.18-20.31,22.99-2.4,52.42-4.04,68.1-18.84,28.72-27.1,110.11-108.79,110.11-108.79,0,0,92.81-119.22,235.96-154.89,0,0-133.89,87.1-160.3,112.58,0,0,96.36-13.9,94.97-9.27-1.39,4.63-177.9,120.45-183.92,128.33-6.02,7.88-43.2,58.06-28.49,59.88,20.12,2.49,257.51-91.01,257.35-90.92l-93.12,138.98-511.93-3.24-63.93-18.69"/>
        <g>
          <path class="cls-34" d="m1088.87,59.79l21.62-2.16s-35.83,30.89-55.59,56.83c0,0-25.63,55.9-71.35,84.63,0,0,101.3-137.44,105.32-139.29Z"/>
          <path class="cls-34" d="m1056.14,121.25l11.12-8.03s-20.69,41.08-24.09,43.55c-3.4,2.47,12.97-35.52,12.97-35.52Z"/>
          <path class="cls-34" d="m1076.29,130.63s-9.03,74.94,47.8,82.35c0,0-26.56-4.32-41.08-10.81,0,0-14.98,8.96-15.91,11.74-.93,2.78,5.71-24.55,5.71-24.55l3.47-58.72Z"/>
        </g>
        <g>
          <path class="cls-20" d="m1084.66,86.54l-.06,22.18s-22.98,8.68-27.92,12.38c-4.94,3.71,27.98-34.56,27.98-34.56Z"/>
          <path class="cls-30" d="m1085.17,220.23s-12.97-.77-7.41,55.45c0,0-6.79.93-4.02,8.34s10.81,37.06,10.81,37.06l.11,37.15s-10.3-7.5-23.27-26.03c-12.97-18.53,23.4,65.61,23.4,65.61l.38-177.57Z"/>
        </g>
      </g>
      <polygon class="cls-20" points="1085.42 892.01 501.04 927.62 2.08 1000.99 2.08 1200.87 1086.66 1200.87 1085.42 892.01"/>
      <path class="cls-2" d="m1.79,1107.59s455.76-122.31,474.37-130.65c18.6-8.34,286.48,14.82,286.48,14.82l226.95,31.5-38.14-36.14s-85.57-29.65-36.28-50.03c49.3-20.38,171.14-5.56,171.14-5.56v-50.96l-350.66-13.9s-334.85,92.66-452.97,125.09c-118.13,32.43-146.03,25.02-146.03,25.02,0,0-46.51-2.78-100.45,18.53-53.95,21.31-34.41,11.12-34.41,11.12v61.15Z"/>
      <path class="cls-18" d="m1003.39,1052.46l-115.29,10.19-107.06-28.72-139.09,3.24s-70.46,4.17-80.98-1.39c-10.52-5.56-21.05-9.27-12.81-21.31,8.24-12.05,193.53-22.24,193.53-22.24,0,0,120.79-11.12,134.05-15.75,13.27-4.63,54.9-14.36,54.9-14.36l72.75,90.34Z"/>
      <path class="cls-9" d="m963.31,926.6s22.86,28.72,90.8,61.46c67.95,32.74,73.51,50.65,73.51,50.65"/>
      <path class="cls-9" d="m957.75,886.91s15.33,19.9,60.89,42.59c45.57,22.68,49.29,35.1,49.29,35.1"/>
      <rect class="cls-36" x="823.87" y="689.71" width="7.41" height="311.79"/>
      <rect class="cls-36" x="720.79" y="689.04" width="7.41" height="168.38"/>
      <rect class="cls-36" x="653.15" y="689.07" width="8.57" height="307.11"/>
      <rect class="cls-36" x="697.84" y="835.13" width="5.44" height="106.91" transform="translate(1053.6 -186.46) rotate(56.43)"/>
      <rect class="cls-41" x="867.49" y="863.52" width="7.41" height="111.81"/>
      <rect class="cls-12" x="1136.35" y="852.68" width="6.72" height="106.2"/>
      <rect class="cls-12" x="1151.93" y="828.98" width="5.44" height="106.91" transform="translate(2516.7 375.76) rotate(122.21)"/>
      <rect class="cls-48" x="1195.88" y="854.41" width="6.95" height="107.08"/>
      <rect class="cls-26" x="955.52" y="685.7" width="251.41" height="165.01"/>
      <polyline class="cls-26" points="955.52 685.7 1086.78 584.08 1206.85 674.42 1206.85 686.55 955.52 685.7"/>
      <rect class="cls-48" x="1079.34" y="717.54" width="7.64" height="272.58" transform="translate(229.33 1936.99) rotate(-90)"/>
      <rect class="cls-10" x="1019.76" y="716.12" width="20.54" height="62.23"/>
      <rect class="cls-10" x="1084.15" y="716.43" width="20.54" height="62.23"/>
      <rect class="cls-10" x="1149.63" y="716.58" width="20.54" height="62.23"/>
      <rect class="cls-15" x="756.69" y="686.7" width="192.26" height="172.8"/>
      <g>
        <rect class="cls-42" x="826.88" y="741.14" width="44.78" height="109.8"/>
        <rect class="cls-25" x="845.87" y="741.14" width="40.31" height="109.8"/>
      </g>
      <polygon class="cls-42" points="755.53 691.45 755.65 710.56 949.49 728.63 949.49 688.79 755.53 691.45"/>
      <rect class="cls-36" x="948.22" y="688.67" width="7.41" height="297.54"/>
      <rect class="cls-41" x="749.9" y="689.09" width="7.41" height="302.68"/>
      <path class="cls-43" d="m920.79,494.9v28.49h-53.71v71.67l-11.58,29.18-32.73,2.47v-152.82c-4.61-.04-8.38-3.81-8.38-8.46s3.77-8.42,8.38-8.46h.07l50.48-.44c.36-.04.76-.07,1.16-.07.22,0,.4.04.62.07h.04c2.18.22,4.14,1.31,5.52,3.05,1.42,1.67,2.29,3.99,2.29,6.5,0,5.08-3.41,9.25-7.8,9.62-.22.04-.44.04-.65.04h-6.93v19.16h53.24Z"/>
      <path class="cls-14" d="m868.27,494.9v28.49h-36v71.67l-11.58,29.18-32.73,2.47v-152.82c-4.61-.04-8.38-3.81-8.38-8.46s3.77-8.42,8.38-8.46h.07l50.48-.44c.36-.04.76-.07,1.16-.07.22,0,.42.05.63.07h.02c4.37.39,7.8,4.5,7.8,9.54s-3.41,9.25-7.8,9.62c-.22.04-.44.04-.65.04h-6.93v19.16h35.53Z"/>
      <polygon class="cls-3" points="722.64 667.71 851.89 573.89 1104.61 552.81 953.78 676.72 722.64 667.71"/>
      <path class="cls-47" d="m599.87,676.74s24.25-11.12,46.95-6.33c22.7,4.79,33.67.62,33.67.62,0,0,17.6-11.58,49.73-6.18,32.12,5.4,60.23-7.41,60.23-7.41,0,0,50.96-2.78,73.82,1.7s56.37,2.47,56.37,2.47c0,0,11.89-7.1,16.06-6.79,4.17.31,15.44.77,15.44.77,0,0,21.62-31.66,45.09-42.78s38.92-32.43,38.92-32.43c0,0,20.08-19.15,32.43-18.84,12.35.31,32.43-5.87,32.43-5.87l-.77,9.42-146.43,111.63-353.91.02Z"/>
      <rect class="cls-1" x="599.87" y="676.74" width="353.95" height="15.06"/>
      <g>
        <polygon class="cls-5" points="1277.34 1040.26 1023.46 1051.07 840.62 851.55 963.31 850.93 1277.34 1040.26"/>
        <polygon class="cls-17" points="1004.01 1051.07 1023.46 1051.07 840.62 851.55 840.62 857.42 1004.01 1051.07"/>
        <polygon class="cls-29" points="963.31 850.93 1272.55 1038.1 1230.4 1043.2 963.31 850.93"/>
        <path class="cls-29" d="m1080.64,1048.64l-57.18,2.43-182.84-199.52,122.69-.62s37.99,20.15,38.92,28.03-34.28,8.8-33.82,4.86c.46-3.94-27.8-13.2-27.8-13.2,0,0-23.63-7.18-30.11,4.86,0,0,1.16,5.33-1.85,9.03-3.01,3.71.69,13.9.69,13.9l171.3,150.22Z"/>
      </g>
      <polygon class="cls-32" points="953.78 676.72 953.82 691.8 1105.16 569.23 1100.21 565.09 953.78 676.72"/>
      <path class="cls-14" d="m840.33,475.7v.04h-.65c.22,0,.44,0,.65-.04Z"/>
      <path class="cls-14" d="m878.18,456.47v.04h-.65c.22,0,.44,0,.65-.04Z"/>
      <g>
        <g>
          <rect class="cls-44" x="611.1" y="818.21" width="3.09" height="38.38"/>
          <rect class="cls-44" x="599.39" y="817.85" width="3.09" height="38.38"/>
          <rect class="cls-44" x="621.05" y="818.77" width="3.09" height="38.38"/>
          <rect class="cls-44" x="630.54" y="818.08" width="3.09" height="38.38"/>
          <rect class="cls-44" x="642.94" y="818.2" width="3.09" height="38.38"/>
          <rect class="cls-44" x="651.97" y="818.2" width="3.09" height="38.38"/>
          <rect class="cls-44" x="663.9" y="817.96" width="3.09" height="38.38"/>
          <rect class="cls-44" x="673.4" y="817.73" width="3.09" height="38.38"/>
          <rect class="cls-44" x="683.7" y="818.66" width="3.09" height="38.38"/>
        </g>
        <g>
          <rect class="cls-44" x="715.15" y="816.5" width="3.09" height="38.38"/>
          <rect class="cls-44" x="725.23" y="816.96" width="3.09" height="38.38"/>
          <rect class="cls-44" x="736.81" y="817.42" width="3.09" height="38.38"/>
          <rect class="cls-44" x="746.77" y="818" width="3.09" height="38.38"/>
          <rect class="cls-44" x="756.73" y="817.89" width="3.09" height="38.38"/>
          <rect class="cls-44" x="768.31" y="817.77" width="3.09" height="38.38"/>
          <rect class="cls-44" x="778.39" y="819.04" width="3.09" height="38.38"/>
          <rect class="cls-44" x="787.54" y="818.35" width="3.09" height="38.38"/>
          <rect class="cls-44" x="799.81" y="818.58" width="3.09" height="38.38"/>
          <rect class="cls-44" x="810.12" y="819.04" width="3.09" height="38.38"/>
          <rect class="cls-44" x="820.31" y="818" width="3.09" height="38.38"/>
        </g>
        <rect class="cls-44" x="580.58" y="856.42" width="259.82" height="6.56"/>
        <rect class="cls-6" x="580.57" y="810.22" width="10.19" height="50.03"/>
        <rect class="cls-6" x="698.01" y="810.22" width="10.19" height="50.03"/>
        <rect class="cls-6" x="580.55" y="852.79" width="259.83" height="7.88"/>
        <rect class="cls-6" x="830.2" y="810.22" width="10.19" height="50.03"/>
        <rect class="cls-6" x="580.76" y="815.26" width="259.05" height="4.48"/>
        <rect class="cls-6" x="609.75" y="818.04" width="3.09" height="38.38"/>
        <rect class="cls-6" x="598.04" y="817.67" width="3.09" height="38.38"/>
        <rect class="cls-6" x="619.69" y="818.6" width="3.09" height="38.38"/>
        <rect class="cls-6" x="629.19" y="817.91" width="3.09" height="38.38"/>
        <rect class="cls-6" x="641.58" y="818.02" width="3.09" height="38.38"/>
        <rect class="cls-6" x="650.62" y="818.02" width="3.09" height="38.38"/>
        <rect class="cls-6" x="662.55" y="817.79" width="3.09" height="38.38"/>
        <rect class="cls-6" x="672.05" y="817.56" width="3.09" height="38.38"/>
        <rect class="cls-6" x="682.35" y="818.49" width="3.09" height="38.38"/>
        <rect class="cls-6" x="713.74" y="816.86" width="3.09" height="38.38"/>
        <rect class="cls-6" x="723.82" y="817.33" width="3.09" height="38.38"/>
        <rect class="cls-6" x="735.4" y="817.79" width="3.09" height="38.38"/>
        <rect class="cls-6" x="745.36" y="818.37" width="3.09" height="38.38"/>
        <rect class="cls-6" x="755.32" y="818.25" width="3.09" height="38.38"/>
        <rect class="cls-6" x="766.9" y="818.14" width="3.09" height="38.38"/>
        <rect class="cls-6" x="776.98" y="819.41" width="3.09" height="38.38"/>
        <rect class="cls-6" x="786.13" y="818.72" width="3.09" height="38.38"/>
        <rect class="cls-6" x="798.41" y="818.95" width="3.09" height="38.38"/>
        <rect class="cls-6" x="808.71" y="819.41" width="3.09" height="38.38"/>
        <rect class="cls-6" x="818.91" y="818.37" width="3.09" height="38.38"/>
      </g>
      <g>
        <polygon class="cls-27" points="788.77 480.77 2.7 258.63 2.7 267.49 788.73 487.72 788.77 480.77"/>
        <polygon class="cls-27" points="2.74 270.1 2.74 279.75 788.43 490.27 788.25 487.55 2.74 270.1"/>
      </g>
      <g>
        <g>
          <rect class="cls-45" x="304.11" y="382.4" width="9.65" height="104.24"/>
          <rect class="cls-16" x="306.23" y="382.56" width="9.65" height="104.24"/>
          <g>
            <g>
              <polyline class="cls-45" points="129.56 745.15 143.92 794.88 303.76 794.88 318.12 745.15 129.56 745.15"/>
              <polyline class="cls-24" points="318.12 745.15 303.76 794.88 466.06 794.88 464.05 769.86 318.12 745.15"/>
            </g>
            <rect class="cls-35" x="309.03" y="484.41" width="19.4" height="20.21"/>
            <rect class="cls-40" x="291.54" y="484.41" width="19.4" height="20.21"/>
            <polygon class="cls-35" points="492.78 540.07 316.11 540.84 306.13 519.07 476.1 518.76 492.78 540.07"/>
            <polygon class="cls-16" points="131.57 539.86 318.12 540.09 308.11 519.08 138.17 518.01 131.57 539.86"/>
            <rect class="cls-19" x="317.96" y="552.74" width="174.81" height="192.42"/>
            <rect class="cls-40" x="129.56" y="552.74" width="188.56" height="192.42"/>
            <rect class="cls-39" x="316.11" y="539.86" width="176.51" height="13.03"/>
            <rect class="cls-31" x="129.56" y="539.86" width="188.52" height="13.03"/>
            <g>
              <rect class="cls-7" x="166.63" y="586.25" width="103.54" height="141.53" rx="7.95" ry="7.95"/>
              <rect class="cls-7" x="336.19" y="582.81" width="137.44" height="118.18" rx="10.93" ry="10.93"/>
            </g>
            <rect class="cls-31" x="129.56" y="735.58" width="188.56" height="9.57"/>
            <rect class="cls-31" x="209.04" y="501.7" width="97.89" height="19.34"/>
            <rect class="cls-40" x="306.19" y="501.7" width="96.94" height="19.34"/>
          </g>
          <g>
            <rect class="cls-31" x="295.73" y="348.27" width="12.2" height="37.22"/>
            <rect class="cls-19" x="304.91" y="348.27" width="17.53" height="37.22"/>
            <polygon class="cls-31" points="257.89 325.57 257.89 339.63 364.76 370.36 365.06 358.93 257.89 325.57"/>
          </g>
          <g>
            <polygon class="cls-22" points="417.17 584.26 430.41 584.23 367.01 699.47 354.37 699.43 417.17 584.26"/>
            <polygon class="cls-22" points="437.07 584.34 454.9 584.3 390.5 699.47 374.04 699.31 437.07 584.34"/>
            <polygon class="cls-22" points="415.39 697.68 395.7 699.53 460.64 584.32 465.21 583.68 472.71 588.23 415.39 697.68"/>
          </g>
          <rect class="cls-8" x="336.19" y="582.81" width="137.44" height="118.18" rx="10.93" ry="10.93"/>
          <rect class="cls-23" x="394.95" y="614.82" width="51.42" height="162.77" rx="19.73" ry="19.73" transform="translate(-115.41 84.42) rotate(-10.09)"/>
          <rect class="cls-28" x="453.86" y="596.59" width="51.42" height="162.77" rx="24.64" ry="24.64" transform="translate(41.15 -27.31) rotate(3.41)"/>
          <rect class="cls-49" x="318.51" y="760.9" width="183.84" height="29.34" rx="3.35" ry="3.35"/>
          <rect class="cls-11" x="318.35" y="733.11" width="184" height="40.15"/>
          <rect class="cls-4" x="318.35" y="733.11" width="184" height="10.04"/>
          <path class="cls-46" d="m435.33,631.93l-50.4,9.73c-.16-.54-.28-1.1-.38-1.66-1.91-10.73,5.24-20.98,15.97-22.88l11.78-2.1c1.17-.21,2.33-.31,3.48-.31,9.38,0,17.7,6.72,19.4,16.28.06.31.1.62.15.94Z"/>
        </g>
        <rect class="cls-49" x="313.31" y="727.08" width="193.94" height="7.26"/>
      </g>
    </g>
    <polygon class="cls-22" points="202.57 587.75 168.12 691.61 168.12 679.6 199.6 587.75 202.57 587.75"/>
    <path class="cls-22" d="m168.79,715.85l45.81-128.11h47.35s-45.25,138.53-45.25,138.53l-43.47-.02s-7.45-1.99-4.45-10.4Z"/>
    <polyline class="cls-22" points="268.61 637.87 268.71 643.01 268.64 652.43 243.93 726.3 238.86 726.29"/>
    <path class="cls-2" d="m441.35,665.81s-.89,5.38-5.7-4.28c-3.54-7.1-5.95-4.99-6.97-3.37-.54,1.15-.99,2.46-1.29,3.95-1.69,8.21-6.91,8.52-8.26,6.09,0,0-.02-.02-.02-.04-.65-.87-1.22-2.26-1.62-4.37-2.04-10.59-6.52-4.21-6.52-4.21h0c-2.46,5.3-6.82-.03-7.06-.33v.03s-4.6-6.38-6.65,4.22c-2.04,10.59-8.02,2.89-8.02,2.89l-4.4-24.7-.47-3.03,16.51,2.83,1.96-.3.09-4.68,17.59-1.41,14.69-.89,2.87,15.77s.97,2.29.94,2.3l2.34,13.55Z"/>
    <path class="cls-46" d="m440.84,662.91s-.39,5.27-5.2-4.39c-3.54-7.1-5.95-4.99-6.97-3.37-.54,1.15-.99,2.46-1.29,3.95-1.69,8.21-6.91,8.52-8.26,6.09,0,0-.02-.02-.02-.04-.65-.87-1.22-2.26-1.62-4.37-2.04-10.59-6.52-4.21-6.52-4.21h0c-2.46,5.3-6.82-.03-7.06-.33v.03s-4.6-6.38-6.65,4.22c-2.04,10.59-8.54,2.95-8.54,2.95l-4.35-24.8-.13-2.41,16.64,2.23-1.65-9.67.07-.14,21.21,3.42,14.69-.89,2.87,15.77s.5,2.42.47,2.43l2.31,13.53Z"/>
    <rect class="cls-46" x="457.01" y="596.69" width="51.42" height="56.65" rx="24.64" ry="24.64" transform="translate(38 -27.59) rotate(3.41)"/>
    <path class="cls-2" d="m506.03,668.64s-2.11,5.03-4.56-5.48c-1.81-7.73-4.64-6.23-6-4.89-.79.99-1.53,2.16-2.17,3.55-3.54,7.6-8.69,6.69-9.44,4.02,0-.01-.01-.02-.01-.04-.43-1-.67-2.48-.57-4.63.46-10.77-5.37-5.6-5.37-5.6h0c-3.62,4.59-6.63-1.6-6.8-1.95l-.02.03s-2.99-7.27-7.43,2.57c-4.43,9.83-8.63.93-8.63.93l1.58-25.02.24-3.06,15.41,6.56,1.98.16,1.16-4.53,17.44,2.69,14.5,2.52-.85,16s.41,2.45.38,2.45l-.85,13.73Z"/>
    <path class="cls-46" d="m506.21,665.71s-1.59,5.04-4.04-5.47c-1.81-7.73-4.64-6.23-6-4.89-.79.99-1.53,2.16-2.17,3.55-3.54,7.6-8.69,6.69-9.44,4.02,0-.01-.01-.02-.01-.04-.43-1-.67-2.48-.57-4.63.46-10.77-5.37-5.6-5.37-5.6h0c-3.62,4.59-6.63-1.6-6.8-1.95l-.02.03s-2.99-7.27-7.43,2.57c-4.43,9.83-9.12.87-9.12.87l1.57-26.69.48-.78,15.67,6.02.63-9.79.1-.12,19.85,8.22,14.82-.91-1.17,19.43s-.07,2.47-.1,2.47l-.88,13.7Z"/>
  </g>
  <rect class="cls-13" x="1088.87" y="-454.57" width="1074.38" height="465.7"/>
  <polygon class="cls-46" points="2165.3 1473.09 1088.87 1473.09 1088.87 1048.23 1790.49 1048.23 2165.3 1048.23 2165.3 1473.09"/>
  <path class="cls-5" d="m1790.49,1067.13s-77.11,47.49-164.43,116.43c-87.32,68.94-220.6,217.53-335.49,248.17-114.89,30.64-137.87,38.3-137.87,38.3l1047.83-7.66-34.68-399.2-375.36,3.97Z"/>
  <g>
    <path class="cls-21" d="m1411.54,773.56c-.12-2.99-.22-5.8-.28-8.41-.08-2.98-.12-5.7-.12-8.19,0-5.2-.7-9.4-2.1-12.6-1.4-3.2-3.34-5.73-5.8-7.6-2.47-1.87-5.44-3.13-8.9-3.8-3.47-.66-7.27-1-11.4-1h-23.2c-2.4,0-5.5.14-9.3.4-3.8.27-7.5.94-11.1,2-3.6,1.07-6.67,2.77-9.2,5.1-2.54,2.34-3.8,5.64-3.8,9.9,0,4.8,1.53,8.4,4.6,10.8,2.54,1.99,5.54,3.15,9,3.49.71.07,1.45.11,2.2.11,1.6,0,3.66-.03,6.2-.1,2.53-.06,5.2-.16,8-.3,2.8-.13,5.46-.23,8-.3,2.53-.06,4.6-.1,6.2-.1,2.66,0,4,2.34,4,7,0,3.2.03,6,.1,8.4.06,2.4.13,4.74.2,7,.06,2.27.13,4.6.2,7,.06,2.4.1,5.2.1,8.4,0,14.8-.74,25.7-2.2,32.7-1.47,7-4.47,10.5-9,10.5-1.74,0-3-1.23-3.8-3.7-.8-2.46-1.34-5.4-1.6-8.8-.27-3.4-.37-6.9-.3-10.5v-.05c.06-3.58.1-6.42.1-8.55,0-2.66-.47-4.9-1.4-6.7-.94-1.8-2.14-3.23-3.6-4.3-1.47-1.06-3.17-1.8-5.1-2.2-1.94-.4-3.84-.6-5.7-.6-3.34,0-6.3.74-8.9,2.2-2.6,1.47-4.77,3.4-6.5,5.8-1.74,2.4-3.04,5.07-3.9,8-.87,2.94-1.3,5.8-1.3,8.6,0,2.17.09,4.33.29,6.47.35,4.17,1.05,8.28,2.11,12.33,1.6,6.14,4.13,11.6,7.6,16.4,3.46,4.8,7.9,8.64,13.3,11.5,5.4,2.87,11.96,4.3,19.7,4.3,9.46,0,17.26-1.77,23.4-5.3,6.13-3.53,10.93-8.7,14.4-15.5,3.46-6.8,5.86-15.23,7.2-25.3,1.33-10.06,2-21.63,2-34.7,0-6.8-.14-13.4-.4-19.8Z"/>
    <path class="cls-21" d="m1528.83,771.76c-1.37-6.88-3.6-12.95-6.71-18.22-.68-1.17-1.41-2.29-2.19-3.38-4.27-6-10.07-10.66-17.4-14-7.33-3.33-16.73-5-28.2-5-4,0-8.6.34-13.8,1-5.2.67-10.13,1.97-14.8,3.9-4.67,1.94-8.6,4.57-11.8,7.9-3.2,3.34-4.8,7.6-4.8,12.8,0,2,.5,3.84,1.5,5.5,1,1.67,2.23,3.1,3.7,4.3s3.1,2.14,4.9,2.8c1.72.64,3.41.97,5.07.99.08,0,.15,0,.23,0,5.07,0,9.83-.53,14.3-1.6,4.47-1.06,9.23-1.6,14.3-1.6,2.8,0,5.3.07,7.5.2,2.2.14,4.1.64,5.7,1.5,1.6.87,2.83,2.2,3.7,4,.87,1.8,1.3,4.3,1.3,7.5,0,.27-.23.5-.7.7-.47.2-1.3-.17-2.5-1.1-1.47-1.07-3.33-2-5.6-2.8-2.27-.8-5.4-1.2-9.4-1.2-7.87,0-15,1.07-21.4,3.2-6.4,2.14-11.9,5.37-16.5,9.7-4.6,4.34-8.13,9.8-10.6,16.4-2.47,6.6-3.7,14.3-3.7,23.1,0,6.53,1.03,12.7,3.1,18.5,2.07,5.8,5.03,10.84,8.9,15.1,3.87,4.27,8.57,7.64,14.1,10.1,5.53,2.47,11.7,3.7,18.5,3.7,4.4,0,8.2-.73,11.4-2.2,3.2-1.46,5.9-3.03,8.1-4.7,2.2-1.66,3.97-3.23,5.3-4.7,1.33-1.46,2.27-2.2,2.8-2.2.8,0,1.4.3,1.8.9.4.6.73,1.3,1,2.1.27.8.47,1.6.6,2.4.13.8.27,1.4.4,1.8.4,2,1.13,3.57,2.2,4.7,1.07,1.13,2.37,2,3.9,2.6,1.53.6,3.17.97,4.9,1.1,1.73.13,3.4.2,5,.2,5.87,0,10.2-1.7,13-5.1,2.8-3.4,4.33-7.9,4.6-13.5.53-10,.8-19.93.8-29.8v-29.8c0-10.13-.83-19.4-2.5-27.8Zm-35.9,57c-.8,2.4-2,4.57-3.6,6.5-1.6,1.94-3.63,3.5-6.1,4.7-2.47,1.2-5.3,1.8-8.5,1.8-5.07,0-9.1-1.6-12.1-4.8-3-3.2-4.5-7.07-4.5-11.6,0-6.13,1.7-11.33,5.1-15.6,3.4-4.26,8.63-6.4,15.7-6.4,2.27,0,4.43.47,6.5,1.4,2.07.94,3.63,1.94,4.7,3,1.47,1.47,2.5,3.17,3.1,5.1.6,1.94.9,4.84.9,8.7,0,2.4-.4,4.8-1.2,7.2Z"/>
    <path class="cls-21" d="m1645.83,793.96c-.2-4.13-.5-8.33-.9-12.6-.4-4.26-.9-8.43-1.5-12.5-.5-3.37-1.02-6.32-1.56-8.82-.11-.51-.23-1.01-.34-1.48-2.27-9.6-6.3-16.6-12.1-21-5.8-4.4-13.7-6.6-23.7-6.6-4.8,0-8.63.84-11.5,2.5-2.87,1.67-5.1,3.5-6.7,5.5-1.6,2-2.8,3.84-3.6,5.5-.8,1.67-1.67,2.5-2.6,2.5-1.2,0-2.1-.76-2.7-2.3-.6-1.53-1.37-3.27-2.3-5.2s-2.33-3.66-4.2-5.2c-1.87-1.53-4.67-2.3-8.4-2.3s-7.07,1.04-9.6,3.1c-2.53,2.07-4.57,4.77-6.1,8.1-1.53,3.34-2.63,7.07-3.3,11.2-.67,4.14-1.13,8.3-1.4,12.5-.02.32-.04.65-.06.97-.21,3.5-.32,6.83-.33,9.99-.01.32-.01.63-.01.94v9.4l-.2,27.2c0,2.8-.03,6.2-.1,10.2s.07,8.17.4,12.5.93,8.64,1.8,12.9c.87,4.27,2.17,8.1,3.9,11.5,1.73,3.4,4.03,6.14,6.9,8.2,2.87,2.07,6.43,3.1,10.7,3.1,3.2,0,5.73-.8,7.6-2.4,1.87-1.6,3.23-3.63,4.1-6.1.87-2.46,1.4-5.1,1.6-7.9.2-2.8.3-5.4.3-7.8,0-4.26-.13-8.5-.4-12.7-.27-4.2-.4-8.43-.4-12.7,0-19.06,1.57-33.77,4.7-44.1s7.3-15.5,12.5-15.5c2.16,0,4,.32,5.52.97.73.29,1.39.67,1.98,1.13,1.8,1.4,3.13,3.27,4,5.6.87,2.34,1.43,5,1.7,8,.06.67.11,1.34.16,2.03.16,2.39.24,4.88.24,7.47,0,5.6-.13,11.1-.4,16.5-.27,5.4-.4,10.9-.4,16.5,0,2.13.03,4.87.1,8.2.07,3.34.27,6.87.6,10.6.33,3.74.87,7.5,1.6,11.3.73,3.8,1.8,7.24,3.2,10.3,1.4,3.07,3.17,5.57,5.3,7.5,2.13,1.94,4.73,2.9,7.8,2.9,4.93,0,8.63-1.93,11.1-5.8,2.47-3.87,4.2-8.43,5.2-13.7,1-5.26,1.53-10.67,1.6-16.2.07-5.53.1-9.97.1-13.3s.07-6.63.2-9.9.2-6.56.2-9.9c0-3.06-.1-6.66-.3-10.8Z"/>
    <path class="cls-21" d="m1762.43,755.06c-.33-3.93-1.2-7.67-2.6-11.2-1.4-3.53-3.5-6.47-6.3-8.8s-6.73-3.5-11.8-3.5-9.17,1.67-12.3,5-4.7,8.2-4.7,14.6c0,6.8.2,13.54.6,20.2.4,6.66.6,13.39.6,20.18v.02c0,1.87-.07,4.4-.2,7.6-.13,3.2-.4,6.64-.8,10.3-.4,3.67-1.03,7.37-1.9,11.1-.87,3.74-1.97,7.1-3.3,10.1-1.33,3-3.03,5.44-5.1,7.3-2.07,1.87-4.5,2.8-7.3,2.8-3.2,0-5.77-.76-7.7-2.3-1.93-1.53-3.4-3.76-4.4-6.7-1-2.93-1.67-6.43-2-10.5-.33-4.06-.5-8.63-.5-13.7,0-6.93.13-13.86.4-20.8.17-4.41.29-8.82.34-13.23.04-2.52.06-5.05.06-7.57,0-3.33-.2-6.93-.6-10.8-.4-3.86-1.27-7.5-2.6-10.9-1.33-3.4-3.3-6.23-5.9-8.5-2.6-2.26-6.1-3.4-10.5-3.4-4,0-7.2,1.53-9.6,4.6s-4.2,6.84-5.4,11.3c-1.2,4.47-1.97,9.17-2.3,14.1-.26,3.95-.43,7.56-.48,10.82-.01.81-.02,1.61-.02,2.38v.37c-.01,1.11-.04,2.36-.1,3.73-.07,1.54-.1,3.73-.1,6.6,0,.47,0,.96,0,1.48,0,2.66-.03,5.96-.09,9.92-.07,4.73-.1,10.9-.1,18.5,0,8,.67,15.73,2,23.2,1.33,7.47,3.7,14.1,7.1,19.9,3.4,5.8,8.03,10.47,13.9,14,5.87,3.53,13.4,5.3,22.6,5.3,6.27,0,11.07-.57,14.4-1.7,3.33-1.13,5.8-2.33,7.4-3.6,1.6-1.26,2.73-2.46,3.4-3.6.67-1.13,1.47-1.7,2.4-1.7.67,0,1.5.43,2.5,1.3,1,.87,2.23,1.84,3.7,2.9,1.47,1.07,3.13,2.03,5,2.9s4.07,1.3,6.6,1.3c3.2,0,5.83-1,7.9-3s3.7-4.47,4.9-7.4,2-6.1,2.4-9.5c.4-3.4.6-6.57.6-9.5l.34-68.76.06-12.44c0-3.2-.17-6.76-.5-10.7Z"/>
    <path class="cls-21" d="m1880.43,771.76c-.89-4.49-2.15-8.62-3.79-12.42h0c-1.42-3.33-3.13-6.38-5.11-9.18-4.27-6-10.07-10.66-17.4-14-7.34-3.33-16.74-5-28.2-5-4,0-8.6.34-13.8,1-5.2.67-10.14,1.97-14.8,3.9-4.67,1.94-8.6,4.57-11.8,7.9-3.2,3.34-4.8,7.6-4.8,12.8,0,2,.5,3.84,1.5,5.5,1,1.67,2.23,3.1,3.7,4.3,1.46,1.2,3.1,2.14,4.9,2.8.26.09.51.18.76.27,1.54.49,3.05.73,4.54.73,5.06,0,9.83-.53,14.3-1.6,4.46-1.06,9.23-1.6,14.3-1.6,2.8,0,5.3.07,7.5.2,2.19.14,4.08.63,5.67,1.48.01.01.02.01.03.02,1.6.87,2.83,2.2,3.7,4,.86,1.8,1.3,4.3,1.3,7.5,0,.17-.09.32-.27.46-.11.08-.25.16-.43.24-.47.2-1.3-.17-2.5-1.1-1.47-1.07-3.34-2-5.6-2.8-2.27-.8-5.4-1.2-9.4-1.2-7.87,0-15,1.07-21.4,3.2-6.4,2.14-11.9,5.37-16.5,9.7-4.6,4.34-8.14,9.8-10.6,16.4-2.47,6.6-3.7,14.3-3.7,23.1,0,6.53,1.03,12.7,3.1,18.5,2.06,5.8,5.03,10.84,8.9,15.1,3.86,4.27,8.56,7.64,14.1,10.1,5.53,2.47,11.7,3.7,18.5,3.7,4.4,0,8.2-.73,11.4-2.2,3.2-1.46,5.9-3.03,8.1-4.7,2.2-1.66,3.96-3.23,5.3-4.7,1.33-1.46,2.26-2.2,2.8-2.2.8,0,1.4.3,1.8.9.4.6.73,1.3,1,2.1.26.8.46,1.6.6,2.4.13.8.26,1.4.4,1.8.4,2,1.13,3.57,2.2,4.7,1.06,1.13,2.36,2,3.9,2.6,1.53.6,3.16.97,4.9,1.1,1.73.13,3.4.2,5,.2,5.86,0,10.2-1.7,13-5.1s4.33-7.9,4.6-13.5c.53-10,.8-19.93.8-29.8v-29.8c0-10.13-.84-19.4-2.5-27.8Zm-35.9,57c-.8,2.4-2,4.57-3.6,6.5-1.6,1.94-3.64,3.5-6.1,4.7-2.47,1.2-5.3,1.8-8.5,1.8-5.07,0-9.1-1.6-12.1-4.8-3-3.2-4.5-7.07-4.5-11.6,0-6.13,1.7-11.33,5.1-15.6,3.4-4.26,8.63-6.4,15.7-6.4,2.26,0,4.43.47,6.5,1.4,2.06.94,3.63,1.94,4.7,3,1.46,1.47,2.5,3.17,3.1,5.1.6,1.94.9,4.84.9,8.7,0,2.4-.4,4.8-1.2,7.2Z"/>
    <path class="cls-21" d="m1961.03,737.06c-.29-.27-.58-.52-.89-.76-3.26-2.63-7.33-3.94-12.21-3.94-2,0-3.94.47-5.8,1.4-1.87.94-3.57,2-5.1,3.2-1.54,1.2-2.87,2.27-4,3.2-1.14.94-1.97,1.4-2.5,1.4s-1.04-.5-1.5-1.5c-.47-1-1.2-2.1-2.2-3.3-1-1.2-2.47-2.3-4.4-3.3-1.94-1-4.77-1.5-8.5-1.5s-6.84,1-9.3,3c-2.47,2-4.47,4.64-6,7.9-1.54,3.27-2.64,6.94-3.3,11-.67,4.07-1.1,8.14-1.3,12.2-.09,1.88-.16,3.72-.19,5.52-.04,2.11-.05,4.17-.01,6.18.06,3.74.1,6.94.1,9.6,0,6.67-.04,13.47-.1,20.4-.07,6.94,0,13.7.2,20.3s.66,12.8,1.4,18.6c.31,2.45.7,4.77,1.17,6.96.63,2.99,1.41,5.74,2.33,8.24,1.6,4.34,3.76,7.77,6.5,10.3,2.73,2.53,6.16,3.8,10.3,3.8s7.1-1.27,9.3-3.8c2.2-2.53,3.76-5.6,4.7-9.2.93-3.6,1.46-7.36,1.6-11.3.13-3.93.2-7.3.2-10.1,0-3.06-.14-6.06-.4-9-.26-2.81-.39-5.61-.4-8.43v-.37c0-6,.06-11.5.2-16.5.13-5,.4-9.43.8-13.3.8-8.53,2.6-14.6,5.4-18.2,2.8-3.6,6.33-4.87,10.6-3.8,2,.54,4,.8,6,.8s3.8-.35,5.3-1.07c1.84-.87,3.27-2.28,4.3-4.23.64-1.22,1.18-2.64,1.59-4.25.81-3.05,1.21-6.8,1.21-11.25,0-6.8-1.7-11.76-5.1-14.9Z"/>
    <path class="cls-21" d="m2075.83,780.46c-.2-4.46-.3-9.03-.3-13.7,0-1.1-.02-2.23-.06-3.38h0c-.08-2.64-.26-5.4-.54-8.32-.4-4.2-1.3-8.03-2.7-11.5-1.4-3.46-3.54-6.36-6.4-8.7-2.87-2.33-6.7-3.5-11.5-3.5-3.47,0-6.3.77-8.5,2.3-2.2,1.54-3.94,3.54-5.2,6-1.27,2.47-2.14,5.17-2.6,8.1-.47,2.94-.7,5.8-.7,8.6,0,4.94.13,9.84.4,14.7.12,2.18.21,4.36.27,6.55h0c.09,2.71.13,5.43.13,8.15,0,2.13-.5,4.04-1.5,5.7-1,1.67-2.3,3.1-3.9,4.3-1.6,1.2-3.4,2.13-5.4,2.8s-3.94,1-5.8,1c-3.34,0-6.04-.86-8.1-2.6-2.07-1.73-3.6-3.86-4.6-6.4-1-2.53-1.67-5.33-2-8.4-.34-3.06-.5-5.86-.5-8.4,0-1.38.02-2.76.07-4.15.04-1.7.12-3.42.23-5.15.09-1.42.16-2.84.2-4.24.06-1.43.09-2.86.09-4.27v-.02c0-.25,0-.52,0-.77,0-2.93.03-5.77.1-8.5.06-2.73-.34-5.16-1.2-7.3-.55-1.34-1.34-2.5-2.38-3.5-.62-.59-1.33-1.13-2.12-1.6-2.14-1.26-5.4-1.9-9.8-1.9-4.67,0-8.3,1.17-10.9,3.5-2.6,2.34-4.54,5.3-5.8,8.9-1.27,3.6-2.04,7.6-2.3,12-.27,4.4-.4,8.67-.4,12.8v1.04l.03,5.75c.02.76.04,1.53.07,2.31.06,1.8.1,3.54.1,5.2v4.1c0,6.4,1.16,11.87,3.5,16.4.21.41.43.81.66,1.2,2.25,3.99,5.2,7.3,8.84,9.9,4,2.87,8.63,4.97,13.9,6.3,1.58.4,3.2.75,4.84,1.02,3.8.66,7.76.98,11.86.98,2.66,0,5.26-.3,7.8-.9,2.53-.6,5.13-.9,7.8-.9.93,0,1.9.27,2.9.8,1,.54,1.5,1.94,1.5,4.2,0,1.34-.44,2.9-1.3,4.7-.87,1.8-2.2,3.5-4,5.1-1.8,1.6-4,2.94-6.6,4-2.6,1.07-5.7,1.6-9.3,1.6h-.07c-3.31,0-5.98-.77-8.03-2.3-2.07-1.53-4-3.2-5.8-5s-3.8-3.43-6-4.9c-2.2-1.46-5.17-2.2-8.9-2.2-1.87,0-3.64.54-5.3,1.6-1.67,1.07-3.1,2.44-4.3,4.1-1.2,1.67-2.17,3.5-2.9,5.5-.74,2-1.1,3.94-1.1,5.8,0,5.2,1.3,9.67,3.9,13.4.88,1.26,1.84,2.44,2.89,3.55,2.04,2.18,4.41,4.06,7.11,5.65,4.06,2.4,8.56,4.2,13.5,5.4,4.93,1.2,9.66,1.8,14.2,1.8,8,0,15.13-1.07,21.4-3.2,6.26-2.13,11.76-5.03,16.5-8.7,4.73-3.66,8.73-7.97,12-12.9,3.26-4.93,5.83-10.2,7.7-15.8,2.26-6.4,3.6-12.96,4-19.7.4-6.73.6-13.5.6-20.3,0-4.66-.1-9.23-.3-13.7Z"/>
  </g>
  <path class="cls-21" d="m2075.83,780.46c-.2-4.46-.3-9.03-.3-13.7,0-1.1-.02-2.23-.06-3.38h0c-.08-2.64-.26-5.4-.54-8.32-.4-4.2-1.3-8.03-2.7-11.5-1.4-3.46-3.54-6.36-6.4-8.7-2.87-2.33-6.7-3.5-11.5-3.5-3.47,0-6.3.77-8.5,2.3-2.2,1.54-3.94,3.54-5.2,6-1.27,2.47-2.14,5.17-2.6,8.1-.47,2.94-.7,5.8-.7,8.6,0,4.94.13,9.84.4,14.7.12,2.18.21,4.36.27,6.55h0c.09,2.71.13,5.43.13,8.15,0,2.13-.5,4.04-1.5,5.7-1,1.67-2.3,3.1-3.9,4.3-1.6,1.2-3.4,2.13-5.4,2.8s-3.94,1-5.8,1c-3.34,0-6.04-.86-8.1-2.6-2.07-1.73-3.6-3.86-4.6-6.4-1-2.53-1.67-5.33-2-8.4-.34-3.06-.5-5.86-.5-8.4,0-1.38.02-2.76.07-4.15.04-1.7.12-3.42.23-5.15.09-1.42.16-2.84.2-4.24.06-1.43.09-2.86.09-4.27v-.02c0-.25,0-.52,0-.77,0-2.93.03-5.77.1-8.5.06-2.73-.34-5.16-1.2-7.3-.55-1.34-1.34-2.5-2.38-3.5-.62-.59-1.33-1.13-2.12-1.6-2.14-1.26-5.4-1.9-9.8-1.9-4.67,0-8.3,1.17-10.9,3.5-2.6,2.34-4.54,5.3-5.8,8.9-1.27,3.6-2.04,7.6-2.3,12-.27,4.4-.4,8.67-.4,12.8v1.04l.03,5.75c.02.76.04,1.53.07,2.31.06,1.8.1,3.54.1,5.2v4.1c0,6.4,1.16,11.87,3.5,16.4.21.41.43.81.66,1.2,2.25,3.99,5.2,7.3,8.84,9.9,4,2.87,8.63,4.97,13.9,6.3,1.58.4,3.2.75,4.84,1.02,3.8.66,7.76.98,11.86.98,2.66,0,5.26-.3,7.8-.9,2.53-.6,5.13-.9,7.8-.9.93,0,1.9.27,2.9.8,1,.54,1.5,1.94,1.5,4.2,0,1.34-.44,2.9-1.3,4.7-.87,1.8-2.2,3.5-4,5.1-1.8,1.6-4,2.94-6.6,4-2.6,1.07-5.7,1.6-9.3,1.6h-.07c-3.31,0-5.98-.77-8.03-2.3-2.07-1.53-4-3.2-5.8-5s-3.8-3.43-6-4.9c-2.2-1.46-5.17-2.2-8.9-2.2-1.87,0-3.64.54-5.3,1.6-1.67,1.07-3.1,2.44-4.3,4.1-1.2,1.67-2.17,3.5-2.9,5.5-.74,2-1.1,3.94-1.1,5.8,0,5.2,1.3,9.67,3.9,13.4.88,1.26,1.84,2.44,2.89,3.55,2.04,2.18,4.41,4.06,7.11,5.65,4.06,2.4,8.56,4.2,13.5,5.4,4.93,1.2,9.66,1.8,14.2,1.8,8,0,15.13-1.07,21.4-3.2,6.26-2.13,11.76-5.03,16.5-8.7,4.73-3.66,8.73-7.97,12-12.9,3.26-4.93,5.83-10.2,7.7-15.8,2.26-6.4,3.6-12.96,4-19.7.4-6.73.6-13.5.6-20.3,0-4.66-.1-9.23-.3-13.7Z"/>
  <path class="cls-50" d="m2007.74,763.68c-.31-.13-.62-.29-.91-.46-.04,1.4-.11,2.82-.2,4.24-.11,1.73-.19,3.45-.23,5.15-1.7-.3-4.62-3.29-9.59-13.14-1.05-2.07-2.05-3.8-3.01-5.22-6.47-9.62-10.93-5.59-12.96-2.4-1.24,2.6-2.27,5.56-2.96,8.93-1.26,6.02-3.37,10.16-5.75,12.82v-1.04c0-4.13.13-8.4.4-12.8.26-4.4,1.03-8.4,2.3-12,1.26-3.6,3.2-6.56,5.8-8.9,2.6-2.33,6.23-3.5,10.9-3.5,4.4,0,7.66.64,9.8,1.9.79.47,1.5,1.01,2.12,1.6l3.47,20.07v.02l.82,4.73Z"/>
  <g>
    <path class="cls-50" d="m1411.26,768.15c-1.14-1.34-2.56-3.4-4.32-6.46-6.13-10.64-10.31-7.48-12.07-5.05-.94,1.72-1.72,3.68-2.24,5.92-2.92,12.3-11.96,12.76-14.3,9.12-.01-.01-.03-.03-.03-.06-1.13-1.3-2.11-3.39-2.81-6.55-3.53-15.87-11.29-6.31-11.29-6.31-4.26,7.94-11.8-.04-12.22-.49l-.02.04s-7.94-9.56-11.49,6.33c-.16.73-.34,1.4-.53,2.01-3.46-.34-6.46-1.5-9-3.49-3.07-2.4-4.6-6-4.6-10.8,0-4.26,1.26-7.56,3.8-9.9,2.53-2.33,5.6-4.03,9.2-5.1,3.6-1.06,7.3-1.73,11.1-2,3.8-.26,6.9-.4,9.3-.4h23.2c4.13,0,7.93.34,11.4,1,3.46.67,6.43,1.93,8.9,3.8,2.46,1.87,4.4,4.4,5.8,7.6,1.4,3.2,2.1,7.4,2.1,12.6,0,2.49.04,5.21.12,8.19Z"/>
    <path class="cls-50" d="m1358.34,815.36c0,2.13-.04,4.97-.1,8.55-.2.63-.38,1.29-.52,2-1.69,8.21-6.91,8.52-8.26,6.09-.01,0-.02-.02-.02-.04-.65-.87-1.22-2.26-1.62-4.37-2.04-10.59-6.52-4.21-6.52-4.21-2.47,5.29-6.82-.03-7.06-.33v.03s-4.6-6.38-6.65,4.22c-1.08,5.6-3.41,6.1-5.36,5.33-.2-2.14-.29-4.3-.29-6.47,0-2.8.43-5.66,1.3-8.6.86-2.93,2.16-5.6,3.9-8,1.73-2.4,3.9-4.33,6.5-5.8,2.6-1.46,5.56-2.2,8.9-2.2,1.86,0,3.76.2,5.7.6,1.93.4,3.63,1.14,5.1,2.2,1.46,1.07,2.66,2.5,3.6,4.3.93,1.8,1.4,4.04,1.4,6.7Z"/>
    <path class="cls-50" d="m1519.93,753.16c.78,1.09,1.51,2.21,2.19,3.38-2.55-.2-4.43,1.83-5.56,3.6-1.23,2.6-2.27,5.57-2.95,8.93-3.88,18.56-15.84,19.27-18.94,13.77-.02-.02-.05-.04-.05-.09-1.49-1.97-2.79-5.11-3.71-9.88-4.68-23.94-14.95-9.52-14.95-9.52v-.02c-5.64,12.01-15.63-.04-16.18-.72l-.02.07s-10.53-14.43-15.23,9.54c-.08.39-.15.77-.23,1.13-1.66-.02-3.35-.35-5.07-.99-1.8-.66-3.43-1.6-4.9-2.8s-2.7-2.63-3.7-4.3c-1-1.66-1.5-3.5-1.5-5.5,0-5.2,1.6-9.46,4.8-12.8,3.2-3.33,7.13-5.96,11.8-7.9,4.67-1.93,9.6-3.23,14.8-3.9,5.2-.66,9.8-1,13.8-1,11.47,0,20.87,1.67,28.2,5,7.33,3.34,13.13,8,17.4,14Z"/>
    <path class="cls-50" d="m1542.94,779.82c.01-3.16.12-6.49.33-9.99.02-.32.04-.65.06-.97.27-4.2.73-8.36,1.4-12.5.67-4.13,1.77-7.86,3.3-11.2,1.53-3.33,3.57-6.03,6.1-8.1,2.53-2.06,5.73-3.1,9.6-3.1s6.53.77,8.4,2.3c1.87,1.54,3.27,3.27,4.2,5.2s1.7,3.67,2.3,5.2c.6,1.54,1.5,2.3,2.7,2.3.93,0,1.8-.83,2.6-2.5.8-1.66,2-3.5,3.6-5.5s3.83-3.83,6.7-5.5c2.87-1.66,6.7-2.5,11.5-2.5,10,0,17.9,2.2,23.7,6.6s9.83,11.4,12.1,21c.11.47.23.97.34,1.48-6.7-10.41-11.3-6.27-13.37-3.02-1.24,2.6-2.27,5.56-2.96,8.93-3.04,14.54-11.04,18.12-15.85,16.34-1.33-.48-2.42-1.38-3.09-2.57-.02-.02-.04-.04-.04-.09-1.49-1.97-2.8-5.11-3.72-9.88-.31-1.57-.64-2.97-.99-4.22-4.98-17.9-13.95-5.3-13.95-5.3v-.02c-5.64,12.01-15.64-.04-16.19-.72l-.02.07s-10.52-14.43-15.22,9.54c-2.71,13.87-8.85,13.91-13.54,11.48v-2.76Z"/>
    <path class="cls-50" d="m1693.53,768.96c0,2.52-.02,5.05-.06,7.57-3.03-1.66-5.41-4.53-5.67-4.85l-.03.07s-10.52-14.43-15.22,9.54c-3.36,17.24-12.03,13.11-16.63,9.45,0-.52,0-1.01,0-1.48,0-2.87.03-5.06.1-6.6.06-1.37.09-2.62.1-3.73v-.37c0-.77.01-1.57.02-2.38.05-3.26.22-6.87.48-10.82.33-4.93,1.1-9.63,2.3-14.1,1.2-4.46,3-8.23,5.4-11.3s5.6-4.6,9.6-4.6c4.4,0,7.9,1.14,10.5,3.4,2.6,2.27,4.57,5.1,5.9,8.5,1.33,3.4,2.2,7.04,2.6,10.9.4,3.87.6,7.47.6,10.8Z"/>
    <path class="cls-50" d="m1762.93,768.76l-.06,12.44c-.71-1.28-1.48-2.73-2.31-4.37-8.12-16.05-13.64-11.28-15.98-7.62-1.24,2.6-2.27,5.57-2.96,8.93-3,14.4-10.87,18.05-15.69,16.4,0-6.79-.2-13.52-.6-20.18-.4-6.66-.6-13.4-.6-20.2,0-6.4,1.57-11.27,4.7-14.6s7.23-5,12.3-5,9,1.17,11.8,3.5,4.9,5.27,6.3,8.8c1.4,3.53,2.27,7.27,2.6,11.2.33,3.94.5,7.5.5,10.7Z"/>
    <path class="cls-50" d="m1725.17,810.16c-.08.76-.16,1.52-.24,2.3-.4,3.67-1.03,7.37-1.9,11.1-.87,3.74-1.97,7.1-3.3,10.1-1.33,3-3.03,5.44-5.1,7.3-2.07,1.87-4.5,2.8-7.3,2.8-3.2,0-5.77-.76-7.7-2.3-1.93-1.53-3.4-3.76-4.4-6.7-1-2.93-1.67-6.43-2-10.5-.11-1.32-.2-2.7-.27-4.14,4.74-.53,9.16,5.33,9.49,5.77l.02-.05s8.32,12.63,14.59-6.28c2.23-6.76,5.21-9.14,8.11-9.4Z"/>
    <path class="cls-50" d="m1871.53,753.16c1.98,2.8,3.69,5.85,5.11,9.17-6.45-9.5-10.88-5.49-12.91-2.31-1.24,2.6-2.27,5.56-2.96,8.93-3.59,17.2-14.13,19.06-18.11,14.87-.32-.33-.59-.7-.82-1.1-.03-.02-.05-.04-.05-.09-1.49-1.97-2.8-5.11-3.71-9.88-.06-.31-.12-.61-.18-.91-4.76-22.66-14.77-8.61-14.77-8.61v-.02c-5.64,12.01-15.63-.04-16.18-.72l-.03.07s-10.52-14.43-15.22,9.54c-.04.18-.07.36-.11.53-.25-.09-.5-.18-.76-.27-1.8-.66-3.44-1.6-4.9-2.8-1.47-1.2-2.7-2.63-3.7-4.3-1-1.66-1.5-3.5-1.5-5.5,0-5.2,1.6-9.46,4.8-12.8,3.2-3.33,7.13-5.96,11.8-7.9,4.66-1.93,9.6-3.23,14.8-3.9,5.2-.66,9.8-1,13.8-1,11.46,0,20.86,1.67,28.2,5,7.33,3.34,13.13,8,17.4,14Z"/>
    <path class="cls-50" d="m1966.13,754.96c0,4.45-.4,8.2-1.21,11.25-.41,1.61-.95,3.03-1.59,4.25-1.03,1.95-2.46,3.36-4.3,4.23-.04-.05-.06-.09-.09-.14-.02-.02-.04-.04-.04-.09-1.49-1.97-2.8-5.11-3.72-9.88-4.67-23.94-14.94-9.52-14.94-9.52v-.02c-5.64,12.01-15.64-.04-16.19-.72l-.02.07s-10.52-14.43-15.22,9.54c-3,15.33-10.19,13.76-14.97,10.65.03-1.8.1-3.64.19-5.52.2-4.06.63-8.13,1.3-12.2.66-4.06,1.76-7.73,3.3-11,1.53-3.26,3.53-5.9,6-7.9,2.46-2,5.56-3,9.3-3s6.56.5,8.5,1.5c1.93,1,3.4,2.1,4.4,3.3,1,1.2,1.73,2.3,2.2,3.3.46,1,.96,1.5,1.5,1.5s1.36-.46,2.5-1.4c1.13-.93,2.46-2,4-3.2,1.53-1.2,3.23-2.26,5.1-3.2,1.86-.93,3.8-1.4,5.8-1.4,4.88,0,8.95,1.31,12.21,3.94.31.24.6.49.89.76,3.4,3.14,5.1,8.1,5.1,14.9Z"/>
    <path class="cls-50" d="m2007.03,749.66c-.07,2.73-.1,5.57-.1,8.5,0,.25,0,.52,0,.77v.02c0,1.41-.03,2.84-.09,4.27-2.98-1.66-5.31-4.48-5.57-4.8l-.02.07s-3.54-4.85-7.44-4.24c-2.81.43-5.82,3.72-7.79,13.78-2.77,14.18-9.13,13.91-13.85,11.32l-.03-5.75v-1.04c0-4.13.13-8.4.4-12.8.26-4.4,1.03-8.4,2.3-12,1.26-3.6,3.2-6.56,5.8-8.9,2.6-2.33,6.23-3.5,10.9-3.5,4.4,0,7.66.64,9.8,1.9.79.47,1.5,1.01,2.12,1.6,1.04,1,1.83,2.16,2.38,3.5.86,2.14,1.26,4.57,1.2,7.3Z"/>
    <path class="cls-50" d="m2075.47,766.37c-.46-.86-.95-1.79-1.45-2.79-8.11-16.05-13.64-11.28-15.98-7.62-1.24,2.6-2.27,5.56-2.95,8.93-3.32,15.87-12.55,18.68-17.09,15.73h0c-.06-2.2-.15-4.38-.27-6.56-.27-4.86-.4-9.76-.4-14.7,0-2.8.23-5.66.7-8.6.46-2.93,1.33-5.63,2.6-8.1,1.26-2.46,3-4.46,5.2-6,2.2-1.53,5.03-2.3,8.5-2.3,4.8,0,8.63,1.17,11.5,3.5,2.86,2.34,5,5.24,6.4,8.7,1.4,3.47,2.3,7.3,2.7,11.5.28,2.92.46,5.68.54,8.31Z"/>
    <path class="cls-50" d="m2017.04,849.76s-1.13,22.38-19.31,7.24c-18.21-15.14-17.65,2.34-17.65,2.34l-.06-.04c-.01.34-.09,2.93-.9,5.61-1.05-1.11-2.01-2.29-2.89-3.55-2.6-3.73-3.9-8.2-3.9-13.4,0-1.86.36-3.8,1.1-5.8.73-2,1.7-3.83,2.9-5.5,1.2-1.66,2.63-3.03,4.3-4.1,1.66-1.06,3.43-1.6,5.3-1.6,3.73,0,6.7.74,8.9,2.2,2.2,1.47,4.2,3.1,6,4.9s3.73,3.47,5.8,5c2.05,1.53,4.72,2.29,8.03,2.3l2.38,4.4Z"/>
  </g>
  <path class="cls-20" d="m1490.72,833.35c-.41.66-.88,1.3-1.39,1.91-1.6,1.94-3.63,3.5-6.1,4.7-2.47,1.2-5.3,1.8-8.5,1.8-5.07,0-9.1-1.6-12.1-4.8-3-3.2-4.5-7.07-4.5-11.6,0-.15,0-.3.01-.44,2.35-2.42,5.38-2.28,6.67-.68.02,0,.03.02.03.04.96.89,1.9,2.4,2.72,4.76,4.16,11.83,8.96,3.77,8.96,3.77,2.39-6.48,8.74-1.07,9.09-.77v-.03s2.81,2.71,5.11,1.34Z"/>
  <path class="cls-20" d="m1494.08,822.85c-.07,1.43-.3,2.85-.68,4.28.04-.33.08-.68.11-1.05.11-1.28.31-2.35.57-3.23Z"/>
  <path class="cls-20" d="m1495,862.97l-3.44-.06c.7-.63,1.22-.95,1.57-.95.8,0,1.4.3,1.8.9.02.04.05.07.07.11Z"/>
  <path class="cls-20" d="m1411.26,765.15c-1.14-1.34-2.56-3.4-4.32-6.46-6.13-10.64-10.31-7.48-12.07-5.05-.94,1.72-1.72,3.68-2.24,5.92-2.92,12.3-11.96,12.76-14.3,9.12-.01-.01-.03-.03-.03-.06-1.13-1.3-2.11-3.39-2.81-6.55-3.53-15.87-11.29-6.31-11.29-6.31-4.26,7.94-11.8-.04-12.22-.49l-.02.04s-7.94-9.56-11.49,6.33c-.16.73-.34,1.4-.53,2.01-3.46-.34-6.46-1.5-9-3.49-3.07-2.4-4.6-6-4.6-10.8,0-4.26,1.26-7.56,3.8-9.9,2.53-2.33,5.6-4.03,9.2-5.1,3.6-1.06,7.3-1.73,11.1-2,3.8-.26,6.9-.4,9.3-.4h23.2c4.13,0,7.93.34,11.4,1,3.46.67,6.43,1.93,8.9,3.8,2.46,1.87,4.4,4.4,5.8,7.6,1.4,3.2,2.1,7.4,2.1,12.6,0,2.49.04,5.21.12,8.19Z"/>
  <path class="cls-20" d="m1358.34,812.36c0,2.13-.04,4.97-.1,8.55-.2.63-.38,1.29-.52,2-1.69,8.21-6.91,8.52-8.26,6.09-.01,0-.02-.02-.02-.04-.65-.87-1.22-2.26-1.62-4.37-2.04-10.59-6.52-4.21-6.52-4.21-2.47,5.29-6.82-.03-7.06-.33v.03s-4.6-6.38-6.65,4.22c-1.08,5.6-3.41,6.1-5.36,5.33-.2-2.14-.29-4.3-.29-6.47,0-2.8.43-5.66,1.3-8.6.86-2.93,2.16-5.6,3.9-8,1.73-2.4,3.9-4.33,6.5-5.8,2.6-1.46,5.56-2.2,8.9-2.2,1.86,0,3.76.2,5.7.6,1.93.4,3.63,1.14,5.1,2.2,1.46,1.07,2.66,2.5,3.6,4.3.93,1.8,1.4,4.04,1.4,6.7Z"/>
  <path class="cls-20" d="m1519.93,750.16c.78,1.09,1.51,2.21,2.19,3.38-2.55-.2-4.43,1.83-5.56,3.6-1.23,2.6-2.27,5.57-2.95,8.93-3.88,18.56-15.84,19.27-18.94,13.77-.02-.02-.05-.04-.05-.09-1.49-1.97-2.79-5.11-3.71-9.88-4.68-23.94-14.95-9.52-14.95-9.52v-.02c-5.64,12.01-15.63-.04-16.18-.72l-.02.07s-10.53-14.43-15.23,9.54c-.08.39-.15.77-.23,1.13-1.66-.02-3.35-.35-5.07-.99-1.8-.66-3.43-1.6-4.9-2.8s-2.7-2.63-3.7-4.3c-1-1.66-1.5-3.5-1.5-5.5,0-5.2,1.6-9.46,4.8-12.8,3.2-3.33,7.13-5.96,11.8-7.9,4.67-1.93,9.6-3.23,14.8-3.9,5.2-.66,9.8-1,13.8-1,11.47,0,20.87,1.67,28.2,5,7.33,3.34,13.13,8,17.4,14Z"/>
  <path class="cls-46" d="m1544.46,774.68s-.19,2.6-1.52,3.14c.01-3.16.12-6.49.33-9.99l1.19,6.85Z"/>
  <path class="cls-20" d="m1542.94,777.82c.01-3.16.12-6.49.33-9.99.02-.32.04-.65.06-.97.27-4.2.73-8.36,1.4-12.5.67-4.13,1.77-7.86,3.3-11.2,1.53-3.33,3.57-6.03,6.1-8.1,2.53-2.06,5.73-3.1,9.6-3.1s6.53.77,8.4,2.3c1.87,1.54,3.27,3.27,4.2,5.2s1.7,3.67,2.3,5.2c.6,1.54,1.5,2.3,2.7,2.3.93,0,1.8-.83,2.6-2.5.8-1.66,2-3.5,3.6-5.5s3.83-3.83,6.7-5.5c2.87-1.66,6.7-2.5,11.5-2.5,10,0,17.9,2.2,23.7,6.6s9.83,11.4,12.1,21c.11.47.23.97.34,1.48-6.7-10.41-11.3-6.27-13.37-3.02-1.24,2.6-2.27,5.56-2.96,8.93-3.04,14.54-11.04,18.12-15.85,16.34-1.33-.48-2.42-1.38-3.09-2.57-.02-.02-.04-.04-.04-.09-1.49-1.97-2.8-5.11-3.72-9.88-.31-1.57-.64-2.97-.99-4.22-4.98-17.9-13.95-5.3-13.95-5.3v-.02c-5.64,12.01-15.64-.04-16.19-.72l-.02.07s-10.52-14.43-15.22,9.54c-2.71,13.87-8.85,13.91-13.54,11.48v-2.76Z"/>
  <path class="cls-46" d="m1656.39,774.56s-.05.65-.26,1.37v-.37c0-.77.01-1.57.02-2.38l.24,1.38Z"/>
  <path class="cls-20" d="m1693.53,765.96c0,2.52-.02,5.05-.06,7.57-3.03-1.66-5.41-4.53-5.67-4.85l-.03.07s-10.52-14.43-15.22,9.54c-3.36,17.24-12.03,13.11-16.63,9.45,0-.52,0-1.01,0-1.48,0-2.87.03-5.06.1-6.6.06-1.37.09-2.62.1-3.73v-.37c0-.77.01-1.57.02-2.38.05-3.26.22-6.87.48-10.82.33-4.93,1.1-9.63,2.3-14.1,1.2-4.46,3-8.23,5.4-11.3s5.6-4.6,9.6-4.6c4.4,0,7.9,1.14,10.5,3.4,2.6,2.27,4.57,5.1,5.9,8.5,1.33,3.4,2.2,7.04,2.6,10.9.4,3.87.6,7.47.6,10.8Z"/>
  <path class="cls-20" d="m1762.93,765.76l-.06,12.44c-.71-1.28-1.48-2.73-2.31-4.37-8.12-16.05-13.64-11.28-15.98-7.62-1.24,2.6-2.27,5.57-2.96,8.93-3,14.4-10.87,18.05-15.69,16.4,0-6.79-.2-13.52-.6-20.18-.4-6.66-.6-13.4-.6-20.2,0-6.4,1.57-11.27,4.7-14.6s7.23-5,12.3-5,9,1.17,11.8,3.5,4.9,5.27,6.3,8.8c1.4,3.53,2.27,7.27,2.6,11.2.33,3.94.5,7.5.5,10.7Z"/>
  <path class="cls-20" d="m1871.53,750.16c1.98,2.8,3.69,5.85,5.11,9.17-6.45-9.5-10.88-5.49-12.91-2.31-1.24,2.6-2.27,5.56-2.96,8.93-3.59,17.2-14.13,19.06-18.11,14.87-.32-.33-.59-.7-.82-1.1-.03-.02-.05-.04-.05-.09-1.49-1.97-2.8-5.11-3.71-9.88-.06-.31-.12-.61-.18-.91-4.76-22.66-14.77-8.61-14.77-8.61v-.02c-5.64,12.01-15.63-.04-16.18-.72l-.03.07s-10.52-14.43-15.22,9.54c-.04.18-.07.36-.11.53-.25-.09-.5-.18-.76-.27-1.8-.66-3.44-1.6-4.9-2.8-1.47-1.2-2.7-2.63-3.7-4.3-1-1.66-1.5-3.5-1.5-5.5,0-5.2,1.6-9.46,4.8-12.8,3.2-3.33,7.13-5.96,11.8-7.9,4.66-1.93,9.6-3.23,14.8-3.9,5.2-.66,9.8-1,13.8-1,11.46,0,20.86,1.67,28.2,5,7.33,3.34,13.13,8,17.4,14Z"/>
  <path class="cls-20" d="m1966.13,751.96c0,4.45-.4,8.2-1.21,11.25-.41,1.61-.95,3.03-1.59,4.25-1.03,1.95-2.46,3.36-4.3,4.23-.04-.05-.06-.09-.09-.14-.02-.02-.04-.04-.04-.09-1.49-1.97-2.8-5.11-3.72-9.88-4.67-23.94-14.94-9.52-14.94-9.52v-.02c-5.64,12.01-15.64-.04-16.19-.72l-.02.07s-10.52-14.43-15.22,9.54c-3,15.33-10.19,13.76-14.97,10.65.03-1.8.1-3.64.19-5.52.2-4.06.63-8.13,1.3-12.2.66-4.06,1.76-7.73,3.3-11,1.53-3.26,3.53-5.9,6-7.9,2.46-2,5.56-3,9.3-3s6.56.5,8.5,1.5c1.93,1,3.4,2.1,4.4,3.3,1,1.2,1.73,2.3,2.2,3.3.46,1,.96,1.5,1.5,1.5s1.36-.46,2.5-1.4c1.13-.93,2.46-2,4-3.2,1.53-1.2,3.23-2.26,5.1-3.2,1.86-.93,3.8-1.4,5.8-1.4,4.88,0,8.95,1.31,12.21,3.94.31.24.6.49.89.76,3.4,3.14,5.1,8.1,5.1,14.9Z"/>
  <path class="cls-20" d="m2007.74,760.68c-.31-.13-.62-.29-.91-.46-.04,1.4-.11,2.82-.2,4.24-.11,1.73-.19,3.45-.23,5.15-1.7-.3-4.62-3.29-9.59-13.14-1.05-2.07-2.05-3.8-3.01-5.22-6.47-9.62-10.93-5.59-12.96-2.4-1.24,2.6-2.27,5.56-2.96,8.93-1.26,6.02-3.37,10.16-5.75,12.82v-1.04c0-4.13.13-8.4.4-12.8.26-4.4,1.03-8.4,2.3-12,1.26-3.6,3.2-6.56,5.8-8.9,2.6-2.33,6.23-3.5,10.9-3.5,4.4,0,7.66.64,9.8,1.9.79.47,1.5,1.01,2.12,1.6l3.47,20.07v.02l.82,4.73Z"/>
  <path class="cls-46" d="m1961.03,737.06c3.4,3.14,5.1,8.1,5.1,14.9,0,4.45-.4,8.2-1.21,11.25l-4.78-26.91c.31.24.6.49.89.76Z"/>
  <path class="cls-20" d="m2007.03,746.66c-.07,2.73-.1,5.57-.1,8.5,0,.25,0,.52,0,.77v.02c0,1.41-.03,2.84-.09,4.27-2.98-1.66-5.31-4.48-5.57-4.8l-.02.07s-3.54-4.85-7.44-4.24c-2.81.43-5.82,3.72-7.79,13.78-2.77,14.18-9.13,13.91-13.85,11.32l-.03-5.75v-1.04c0-4.13.13-8.4.4-12.8.26-4.4,1.03-8.4,2.3-12,1.26-3.6,3.2-6.56,5.8-8.9,2.6-2.33,6.23-3.5,10.9-3.5,4.4,0,7.66.64,9.8,1.9.79.47,1.5,1.01,2.12,1.6,1.04,1,1.83,2.16,2.38,3.5.86,2.14,1.26,4.57,1.2,7.3Z"/>
  <path class="cls-20" d="m2075.47,763.37c-.46-.86-.95-1.79-1.45-2.79-8.11-16.05-13.64-11.28-15.98-7.62-1.24,2.6-2.27,5.56-2.95,8.93-3.32,15.87-12.55,18.68-17.09,15.73h0c-.06-2.2-.15-4.38-.27-6.56-.27-4.86-.4-9.76-.4-14.7,0-2.8.23-5.66.7-8.6.46-2.93,1.33-5.63,2.6-8.1,1.26-2.46,3-4.46,5.2-6,2.2-1.53,5.03-2.3,8.5-2.3,4.8,0,8.63,1.17,11.5,3.5,2.86,2.34,5,5.24,6.4,8.7,1.4,3.47,2.3,7.3,2.7,11.5.28,2.92.46,5.68.54,8.31Z"/>
  <path class="cls-20" d="m2017.04,846.76s-1.13,22.38-19.31,7.24c-18.21-15.14-17.65,2.34-17.65,2.34l-.06-.04c-.01.34-.09,2.93-.9,5.61-1.05-1.11-2.01-2.29-2.89-3.55-2.6-3.73-3.9-8.2-3.9-13.4,0-1.86.36-3.8,1.1-5.8.73-2,1.7-3.83,2.9-5.5,1.2-1.66,2.63-3.03,4.3-4.1,1.66-1.06,3.43-1.6,5.3-1.6,3.73,0,6.7.74,8.9,2.2,2.2,1.47,4.2,3.1,6,4.9s3.73,3.47,5.8,5c2.05,1.53,4.72,2.29,8.03,2.3l2.38,4.4Z"/>
  <path class="cls-20" d="m1374.66,819.03c-.37,5.91-.95,10.72-1.72,14.43-1.47,7-4.47,10.5-9,10.5-1.74,0-3-1.23-3.8-3.7-.67-2.05-1.15-4.43-1.44-7.14,2.58,1.28,6.48.62,11.52-7.66,1.76-2.89,3.22-4.97,4.44-6.43Z"/>
  <path class="cls-20" d="m1725.17,807.16c-.08.76-.16,1.52-.24,2.3-.4,3.67-1.03,7.37-1.9,11.1-.87,3.74-1.97,7.1-3.3,10.1-1.33,3-3.03,5.44-5.1,7.3-2.07,1.87-4.5,2.8-7.3,2.8-3.2,0-5.77-.76-7.7-2.3-1.93-1.53-3.4-3.76-4.4-6.7-1-2.93-1.67-6.43-2-10.5-.11-1.32-.2-2.7-.27-4.14,4.74-.53,9.16,5.33,9.49,5.77l.02-.05s8.32,12.63,14.59-6.28c2.23-6.76,5.21-9.14,8.11-9.4Z"/>
  <path class="cls-5" d="m2166.83,1067.89h-376.34s94.98-55.91,167.49-78.38c72.51-22.47,207.87-69.19,207.87-69.19l.98,147.57Z"/>
  <path class="cls-20" d="m1077.06,351.47l7.85,6.83s2.43-2.23,5.11-1.79-5.68-36.32-5.68-36.32l-7.28,31.28Z"/>
</svg>