<?xml version="1.0" encoding="UTF-8"?>
<svg id="Calque_1" data-name="Calque 1" xmlns="http://www.w3.org/2000/svg" viewBox="0 0 595.28 841.89">
  <path d="m294.41,263.64c.45-14.4-.11-20.4-1.82-19.83-2.5.83-22.02,36.12-22.02,39.8,0,1.11,5.22,1.72,11.6,1.35l11.6-.67.64-20.65Zm-19.42,79.6l18.78-1.5.64-19.55c.81-24.62-.29-26.15-18.08-25.29l-13.42.65-10.52,19.45c-5.79,10.7-11.11,21.8-11.83,24.67-1.24,4.94-.84,5.17,7.17,4.15,4.67-.59,16.93-1.75,27.26-2.58Zm-83.16,69.76c16.71-32.6,24.67-50.27,22.65-50.27-6.23,0-42.82,19.97-53,28.93-12.6,11.09-21.28,27.23-21.28,39.58,0,10.07,6.44,24.53,14.98,33.64,7.03,7.51,3.98,11.83,36.65-51.88Zm104.59,85.55c30.15-3.92,53.5-9.97,69.82-18.09,52.78-26.28,83.3-63.44,83.3-101.42,0-32.3-22.81-56.58-66-70.23-22.63-7.16-36.35-9.92-52.21-10.52l-13.26-.5-.62,23.52-.63,23.52,8.36,1.46c13.02,2.28,30.87,8.48,26.8,9.3-2.01.41-10.21-.13-18.24-1.21-8.02-1.07-15.08-1.46-15.68-.86-.61.61-1.1,16.54-1.1,35.42,0,20.9-.79,33.5-2.03,32.22-1.12-1.16-6.07-9.56-11.02-18.67-8.12-14.98-8.99-18.1-9.02-32.46-.02-10.16-1.01-16.5-2.75-17.57-3.77-2.33-31.04-1.13-46.99,2.07l-13.25,2.66-9.52,17.68c-19.95,37.02-51.25,99.3-51.25,101.97,0,4.97,32.83,18.75,56.35,23.65,10.37,2.16,44.77,1.18,68.94-1.95Zm-168.67,38.33c4.07-7.68,11.51-21.75,16.55-31.27,5.04-9.52,9.16-19.03,9.16-21.13s-2.86-6.56-6.36-9.91c-11.62-11.13-16.84-24.52-16.84-43.2s4.58-29.16,18.67-43.88c13.35-13.95,45.26-31.09,64.66-34.73,4.51-.84,9.09-2.68,10.17-4.07,4.44-5.71,24.7-45.83,24.7-48.91,0-2.56-2.78-3.34-12-3.34-10.32,0-12.63-.81-16.57-5.82-12.95-16.46,3.29-37.91,22.99-30.35,3.06,1.17,2.83,1.78-1.48,3.92-7.12,3.53-8.26,15.53-1.81,18.98,2.56,1.37,7.65,2.18,11.3,1.8,6.17-.63,7.93-3.15,24.41-34.93,9.77-18.84,22.88-43.2,29.15-54.13l11.4-19.89.59,53.58c.63,57.01.58,56.78,11.04,51.73,33.14-16.02,46.96-28.67,52.64-48.21,3.38-11.62,3.38-13.48.03-25.53-6.86-24.68-17.91-36.73-43.56-47.51-12.98-5.46-16.51-5.93-43.94-5.89-22.79.04-32.36.96-40.54,3.91-16.05,5.8-15.24,2.31,1.19-5.14,30.14-13.67,77.87-14.11,104.15-.96,34.41,17.22,52.75,61.54,38.26,92.51-7.2,15.4-16.75,23.84-39.95,35.3-15.77,7.79-18.68,9.91-13.68,9.95,3.49.03,16.65,1.58,29.24,3.45,47.24,7.01,76.44,23.89,95.46,55.15,7.37,13.91,9.59,27.81,11.81,41.72l-3.02-22.96,3.02,22.96c.02,8.63-.38,14.54-1.16,19.05-.11.67-.24,1.3-.37,1.91-1.74,8.08-4.93,11.59-9.33,20.54-27.13,55.13-119.43,91.79-211.09,83.83-34.95-3.04-61.22-9.79-84.94-21.86-4.57-2.32-7.87-2.86-9.17-1.49-1.11,1.18-8.51,14.57-16.45,29.76-12.21,23.38-15.29,27.73-20.09,28.32l-5.67.7,7.39-13.96Z"/>
  <path d="m80.69,638.65c2.14,0,12.88.78,12.88,3.5,0,2.08-7.19,5.47-11.84,5.53-1.66,0-5.78-.64-5.78-2.88,0-1.09,1.14-2.25,1.83-2.97l2.92-3.19Zm2.3-2.61l1.03-.94c6.11-1.2,21.91-3.34,21.91-11.78,0-2.83-2.14-6.38-11.11-6.38-5.42,0-15.17,2.05-20.23,3.97-1.77.69-3.28,2.66-4.38,4.12-1.62,2.14-2.41,4.02-2.41,4.38,0,.89.42,1.41,1.31,1.41.56,0,1.14-.2,1.61-.36,3.03-.99,4.01-1.45,7.25-1.99.69-.11,1.88-.42,1.88-1.2,0-.41-.41-.62-.72-.78,7.92-2.86,13.45-3.55,14.66-3.64,6.05-.42,7.5,1.41,7.56,2.55.09,1.41-2.67,4.95-14.45,6.58,4.33-5.06,4.69-5.73,5.06-6.62-5.22,0-8.66,4.38-12.05,7.67-1.56.47-8.88.56-8.88,2.81,0,1.76,3.34,1.92,4.8,2.03-6.05,7.98-5.78,8.23-5.78,9.91,0,4.75,5.22,6,8.97,5.8,14.03-.78,20.44-7.83,20.44-10.8,0-5.01-12.77-6.05-16.47-6.73Z"/>
  <path d="m113.18,638.92c.22.09-2.24,3.39-2.24,6.09,0,.89.25,1.56.62,2.41-1.2,1.09-2.3,2.08-4.01,2.08-1.31,0-2.3-.47-2.3-1.97,0-1.62.98-3.66,2.14-4.81,1.56-1.5,4.02-2.75,5.78-3.8Zm9.61,4.06c-1.62,1.2-3.08,3.19-5.38,2.77.98-2.03,2.03-3.86,2.03-6.16,0-1.56-.31-2.66-1.88-3.08.56-.31,1.19-.62,1.19-1.41,0-1.41-1.72-1.92-2.86-1.88-3.19.16-6.94,1.56-9.75,3.86-2.92,2.23-4.86,4.84-4.75,8.76.2,4.74,2.72,7.45,5.42,7.45,3.28,0,5.84-1.67,8.03-3.91,3.81,0,6.11-1.25,8.45-4.23l-.52-2.19Z"/>
  <path d="m132.33,643.76c-2.45,2.19-5.33,3.7-6.26,3.7-.36,0-.42-.52-.42-.78,0-2.19,1.25-3.34,2.88-4.49,2.03-1.45,2.34-1.92,3.97-3.75.56-.47,1.97-1.94,2.08-2.76.2-1.56-2.45-1.09-3.19-1.09-.88,0-1.56.09-2.28.56-3.34,2.2-7.25,7.41-7.25,12.47,0,2.25,1.41,5.17,3.95,5.17,2.88,0,6.38-4.7,8.41-6.47l.09.09c-.52,1.36-1.09,2.83-1.09,4.39,0,1.83,1.16,3.44,3.08,3.44,3.86,0,9.39-6,12.05-8.55l-.31-2.25c-1.56,1.25-6.05,4.91-8.03,4.91-.83,0-1.3-.31-1.3-1.16,0-2.34,3.7-6.45,5.38-7.97.83-.73,2.23-1.94,2.12-3.19-.2-2.7-.78-2.86-1.19-2.86-1.31,0-6.42,4.95-7.52,5.94l-5.16,4.64Z"/>
  <path d="m163.46,643.72c-2.09,1.88-6.11,5.22-8.97,5.22-1.42,0-2.14-1.05-2.61-2.25-.27-1.25-.11-2.7.36-3.59,11.31-10.95,12.67-15.55,13.05-20.5.05-.67-.16-1.94-1.05-1.94-1.67,0-6.62,4.86-11.22,10.55-3.39,4.17-5.73,10.06-5.73,15.53,0,3.08.83,6.78,4.64,6.78,4.48,0,9.39-5.27,12.25-8.24l-.72-1.56Zm-10.17-5.53c2.45-5.38,5.42-10.06,7.98-11.31-.95,2.97-4.17,7.97-7.88,11.42l-.11-.11Z"/>
  <path d="m176.7,645.59l.11.11c-.69,1.41-1.94,4.17-1.94,5.84,0,1.5.78,2.75,2.52,2.75,2.55,0,9.53-5.58,11.78-8.12l-.42-1.94c-2.23,1.52-5.22,4.17-7.41,4.17-.83,0-1.61-.36-1.61-1.25,0-2.45,4.53-6.09,4.53-7.76,0-1.16-.52-1.72-1.52-2.14.47-.16,1.83-.67,1.83-1.31s-.98-2.55-3.39-2.5c-6.05.16-19.61,6.84-19.39,13.36.09,2.7,3.12,6.16,4.58,6.16,1.2,0,4.55-2.72,5.53-3.5l4.8-3.86Zm2.81-7.05l.11.11c-10.33,10.44-11.94,10.28-12.98,10.49-.78.16-.99-.78-1.05-1.05,0-2.55,1.51-5.74,13.92-9.55Z"/>
  <path d="m210.08,645.28c-.94.78-3.23,2.61-4.48,2.61-.53,0-.94-.47-.94-.94,0-3.61,6.41-7.56,6.41-9.59-.16-1.09-.47-2.05-.78-2.83-.31-.72-.62-.98-.83-.98-1.52,0-11.11,6.42-15.28,11.73-.22.27-.69.74-1.05.74-.31,0-.58-.27-.58-.58,0-1.25,6.58-6.52,6.58-8.55,0-.31.27-1.05-2.88-1.16-.88,0-1.34.05-2.03.62-3.02,2.56-6.31,7.83-6.16,11.42.06,1.78.62,5.06,2.92,5.06,1.41,0,3.34-2.56,4.12-3.55,2.34-3.03,5-5.73,8.03-7.98l.11.11c-1.67,2.41-4.48,5.84-4.48,8.97,0,1.78.94,3.44,2.91,3.44,3.81,0,9.19-6.41,11.95-8.86l-.42-2.3-3.12,2.61Z"/>
  <path d="m223.07,652.57c-2.88,2.09-10.8,8.66-10.8,12.42,0,.67.47,1.25,1.19,1.25,2.05,0,6.62-3.34,12.11-12.05l11-8.25-.27-2.19-7.92,5.69-.11-.11,3.92-7.3c.36-.67,1.09-1.88,1.09-2.66,0-.89-.94-2.66-1.98-2.66-.83,0-1.45.88-1.98,1.45l-5.58,6.16c-1.98,2.14-5.16,3.39-6.62,3.23-.47,0-.78-.11-.83-.53-.47-3.8,3.39-5.27,6.67-7.03l5.94-3.24c.69-.47,1.74-1.2,1.74-2.14,0-1.14-2.05-1.36-2.77-1.3-4.01.36-15.39,5.89-15.39,12.72,0,2.3.98,6.11,3.91,6.11s8.34-4.75,10.23-6.84l.09.11-3.64,7.14Z"/>
  <path d="m241.11,642.87c1.41-3.44,4.44-5.94,7.03-6.61.38-.11.62.2.62.56.06.89-3.06,4.49-7.66,6.05Zm13.66.38c-2.77,2.19-7.14,6-10.84,6-1.67,0-3.39-.69-3.23-2.67l.11-1.14c10.02-3.28,12.56-7.14,12.56-9.7,0-2.08-2.08-2.5-3.75-2.5-6.78-.05-14.34,6.94-14.14,13.77.11,3.44,1.88,6.83,5.69,6.83,5.17,0,10.91-4.89,14.08-8.59l-.47-1.98Z"/>
  <path d="m263.59,640.48l.09.11c-2.08,2.5-4.8,5.26-4.8,8.81,0,1.99,1.36,4.02,3.55,4.02,2.98,0,8.98-5.8,10.95-8.03l-.36-1.94c-1.72,1.31-5,4.7-7.25,4.7-.78,0-1.61-.62-1.61-1.47,0-2.08,2.55-4.64,4.06-5.94,1.2-1,2.19-1.78,2.19-3.39-.11-.94-.47-1.78-1.25-2.76-.52-.62-3.39,0-8.3.67.22-.47.38-.94.38-1.45,0-.47-.42-.89-.94-.89-1.27,0-6.58,3.75-6.58,7.52,0,1.09.31,1.5,1.41,1.61-.99,1.41-2.08,2.72-3.44,3.81l.2,2.3c2.25-2.25,4.44-3.61,6.27-6.47l5.42-1.2Z"/>
  <path d="m284.44,633.97c2.25,0,4.17-2.56,4.17-4.64,0-.95-.78-1.62-1.72-1.62-2.03,0-4.53,1.88-4.53,4.02,0,1.25.83,2.25,2.08,2.25Zm2.45,10.26c-2.08,1.52-4.8,4.28-7.56,4.28-2.39,0-3.17-1.16-2.77-3.28,2.2-1.51,7.36-6.16,7.36-8.76,0-1.16-1.41-1.47-2.3-1.47-3.12,0-9.64,6.22-9.64,12.58,0,2.66,1.41,6.2,4.48,6.2,3.95,0,8.55-4.69,10.89-7.56l-.47-1.99Z"/>
  <path d="m292.38,642.87c1.41-3.44,4.44-5.94,7.03-6.61.38-.11.62.2.62.56.06.89-3.06,4.49-7.66,6.05Zm13.66.38c-2.77,2.19-7.14,6-10.84,6-1.67,0-3.39-.69-3.23-2.67l.11-1.14c10.02-3.28,12.56-7.14,12.56-9.7,0-2.08-2.08-2.5-3.75-2.5-6.78-.05-14.34,6.94-14.14,13.77.11,3.44,1.88,6.83,5.69,6.83,5.17,0,10.91-4.89,14.08-8.59l-.47-1.98Z"/>
  <path d="m338.36,638.5c-.83,3.08-9.22,9.34-9.86,9.19-.56-.11-.83-.53-.78-1,.31-3.44,1.47-5.22,10.64-8.19Zm11.33-9.86c.83-1.3,2.23-3.44,2.23-5,0-.94-.62-1.99-1.67-1.99-3.8,0-8.39,10.8-10.11,13.77-.69-.78-1.09-1.52-2.19-1.45-4.44.25-14.81,5.47-14.81,11.62,0,1.83,1.45,6.83,3.8,6.83s7.2-5.06,9.03-6.62c-.22,1.31-.42,2.67-.42,3.97,0,1.67.78,3.75,2.77,3.75,3.81,0,9.17-5.47,11.62-8.19l-.36-1.72c-1.67,1.09-6.47,5.33-8.23,5.33-1.16,0-1.2-1.78-1.2-2.61,0-3.34,2.5-6.73,4.22-9.44l5.33-8.25Z"/>
  <path d="m359.29,643.76c-2.45,2.19-5.33,3.7-6.27,3.7-.36,0-.42-.52-.42-.78,0-2.19,1.25-3.34,2.88-4.49,2.03-1.45,2.34-1.92,3.97-3.75.56-.47,1.97-1.94,2.08-2.76.2-1.56-2.45-1.09-3.19-1.09-.88,0-1.56.09-2.28.56-3.34,2.2-7.25,7.41-7.25,12.47,0,2.25,1.41,5.17,3.95,5.17,2.88,0,6.38-4.7,8.41-6.47l.09.09c-.52,1.36-1.09,2.83-1.09,4.39,0,1.83,1.16,3.44,3.08,3.44,3.86,0,9.39-6,12.05-8.55l-.31-2.25c-1.56,1.25-6.05,4.91-8.03,4.91-.83,0-1.3-.31-1.3-1.16,0-2.34,3.7-6.45,5.38-7.97.83-.73,2.23-1.94,2.12-3.19-.2-2.7-.78-2.86-1.19-2.86-1.31,0-6.42,4.95-7.52,5.94l-5.16,4.64Z"/>
  <path d="m410.45,636.47c-1.09.94-2.52,2.5-2.52,4.06,0,1.67,1.42,2.72,2.92,2.5,6.58-.98,20.03-14.34,19.67-21.38-.16-3.28-2.19-4.95-5.33-4.95-6.2,0-17.16,8.34-21.59,12.56-5.36,5.06-11.78,13.3-11.78,20.97,0,6,4.17,9.59,9.97,9.59,4.89,0,13.55-3.12,23.72-12.94,1.98-1.88,2.83-2.59,2.67-5.27-4.97,4.39-16.44,12.94-23.02,12.94-3.75,0-5.52-2.19-5.52-5.89,0-3.97,2.66-9.75,6.31-14.03,11.67-13.67,17.62-13.88,18.56-14.14.83-.2,1.41.16,1.41,1.05,0,1.72-3.28,6.42-8.34,10.8l-.11-.11c.27-.83,0-1.19-.52-1.19-.58,0-2.3,1.67-2.66,2.03l-3.86,3.39Z"/>
  <path d="m440.73,638.92c.22.09-2.23,3.39-2.23,6.09,0,.89.25,1.56.62,2.41-1.2,1.09-2.3,2.08-4.02,2.08-1.31,0-2.3-.47-2.3-1.97,0-1.62.98-3.66,2.14-4.81,1.56-1.5,4.02-2.75,5.78-3.8Zm9.61,4.06c-1.62,1.2-3.08,3.19-5.38,2.77.98-2.03,2.03-3.86,2.03-6.16,0-1.56-.31-2.66-1.88-3.08.56-.31,1.19-.62,1.19-1.41,0-1.41-1.72-1.92-2.86-1.88-3.19.16-6.94,1.56-9.75,3.86-2.92,2.23-4.86,4.84-4.75,8.76.2,4.74,2.72,7.45,5.42,7.45,3.28,0,5.84-1.67,8.03-3.91,3.81,0,6.11-1.25,8.45-4.23l-.52-2.19Z"/>
  <path d="m462.01,633.97c2.25,0,4.17-2.56,4.17-4.64,0-.95-.78-1.62-1.72-1.62-2.03,0-4.53,1.88-4.53,4.02,0,1.25.83,2.25,2.08,2.25Zm2.45,10.26c-2.08,1.52-4.8,4.28-7.56,4.28-2.39,0-3.17-1.16-2.77-3.28,2.2-1.51,7.36-6.16,7.36-8.76,0-1.16-1.41-1.47-2.3-1.47-3.12,0-9.64,6.22-9.64,12.58,0,2.66,1.41,6.2,4.48,6.2,3.95,0,8.55-4.69,10.89-7.56l-.47-1.99Z"/>
  <path d="m486.01,645.28c-.94.78-3.23,2.61-4.48,2.61-.53,0-.94-.47-.94-.94,0-3.61,6.41-7.56,6.41-9.59-.16-1.09-.47-2.05-.78-2.83-.31-.72-.62-.98-.83-.98-1.52,0-11.11,6.42-15.28,11.73-.22.27-.69.74-1.05.74-.31,0-.58-.27-.58-.58,0-1.25,6.58-6.52,6.58-8.55,0-.31.27-1.05-2.88-1.16-.88,0-1.34.05-2.03.62-3.02,2.56-6.31,7.83-6.16,11.42.06,1.78.62,5.06,2.92,5.06,1.41,0,3.34-2.56,4.12-3.55,2.34-3.03,5-5.73,8.03-7.98l.11.11c-1.67,2.41-4.48,5.84-4.48,8.97,0,1.78.94,3.44,2.91,3.44,3.81,0,9.19-6.41,11.95-8.86l-.42-2.3-3.12,2.61Z"/>
  <path d="m499.88,638.92c.22.09-2.23,3.39-2.23,6.09,0,.89.25,1.56.62,2.41-1.2,1.09-2.3,2.08-4.02,2.08-1.31,0-2.3-.47-2.3-1.97,0-1.62.98-3.66,2.14-4.81,1.56-1.5,4.02-2.75,5.78-3.8Zm9.61,4.06c-1.62,1.2-3.08,3.19-5.38,2.77.98-2.03,2.03-3.86,2.03-6.16,0-1.56-.31-2.66-1.88-3.08.56-.31,1.19-.62,1.19-1.41,0-1.41-1.72-1.92-2.86-1.88-3.19.16-6.94,1.56-9.75,3.86-2.92,2.23-4.86,4.84-4.75,8.76.2,4.74,2.72,7.45,5.42,7.45,3.28,0,5.84-1.67,8.03-3.91,3.81,0,6.11-1.25,8.45-4.23l-.52-2.19Z"/>
  <path d="m524.23,630.98c.53-.72,2.05-2.45,2.05-3.39,0-.83-1-.99-1.67-.99-3.03,0-4.17,2.45-5.73,4.59-5.59.2-6,1.03-8.83,5.62l-.56.94c2.77-.41,1.77-.2,4.95-.2-1.94,3.28-4.8,5.94-7.94,8.34l.58,1.99,2.66-2.14.11.11c-.67,1.5-1.36,3.49-1.36,5.2,0,2.09,1.25,3.5,3.3,3.5,4.42,0,10.06-5.58,13.14-8.39l-.27-2.3c-5.42,3.86-7.3,5.42-8.97,5.42-1.2,0-1.56-.67-1.56-1.83,0-3.12,2.97-7.41,4.75-9.7,5.73.38,6.14-1.56,8.59-6.52l-3.24-.27Z"/>
  <path d="m62.62,670.73c.8-1.09,1.11-1.78,1.16-3.19,2.39,0,12.2.62,12.78,3.81.56,3.28-6.16,10.75-16.38,11.31-1.67.11-3.45,0-5.38-.52l1.14-1.72c.84-.58,5.27-.84,5.27-1.88s-2.14-.27-4.06-.27l5.47-7.56Zm-12.45,17.58c16.69,1.88,30.19-5.95,30.19-17.06,0-6.47-3.59-10.64-16.53-10.64-4.69,0-9.48.53-14.03,1.83-1.45.42-3.02.84-3.95,2.14-.84,1.16-3.86,5.17-3.86,6.42,0,.47.52.52.83.52,1.56,0,8.81-3.34,17.94-3.5l-8.28,10.95c-2.2.69-8.36,2.09-8.36,5.12,0,1.61,1.11,2.55,2.36,3.33-1.25,2.19-4.95,7.88-4.95,10.17,0,1.14.51,1.88,1.76,1.88s2.41-1.52,3.08-2.45c1.36-1.81,2.66-3.55,2.66-4.22,0-.58-.52-.83-.99-.94l2.14-3.55Z"/>
  <path d="m90.84,673.45c.53-.22,2.05-.89,2.61-.89,1.58,0,3.5,2.7,4.97,3.48.25-.31.62-.52,1.03-.78.53-.36,1.09-.72,1.09-1.45s-1.34-1.83-1.77-2.25c-.73-.78-1.83-2.12-2.97-2.12-1.27,0-3.08.72-4.28,1.19l-4.22,1.67c-2.52,1-3.3,2.09-3.3,3.03,0,.25.06.72.47.72.38,0,1.41-.52,1.78-.67l4.58-1.92Zm.27,16.11l.11.11c-.69,1.41-1.94,4.17-1.94,5.84,0,1.5.78,2.75,2.52,2.75,2.55,0,9.53-5.58,11.78-8.12l-.42-1.94c-2.23,1.52-5.22,4.17-7.41,4.17-.83,0-1.61-.36-1.61-1.25,0-2.45,4.53-6.09,4.53-7.77,0-1.16-.52-1.72-1.52-2.14.47-.16,1.83-.67,1.83-1.31s-.98-2.55-3.39-2.5c-6.05.16-19.61,6.84-19.39,13.36.09,2.7,3.12,6.16,4.58,6.16,1.2,0,4.55-2.72,5.53-3.5l4.8-3.86Zm2.81-7.05l.11.11c-10.33,10.44-11.94,10.28-12.98,10.48-.78.16-.98-.78-1.05-1.05,0-2.55,1.52-5.74,13.92-9.55Z"/>
  <path d="m118.03,674.95c.53-.72,2.05-2.45,2.05-3.39,0-.83-1-.99-1.67-.99-3.03,0-4.17,2.45-5.73,4.59-5.59.2-6,1.03-8.83,5.62l-.56.94c2.77-.41,1.77-.2,4.95-.2-1.94,3.28-4.8,5.94-7.94,8.34l.58,1.98,2.66-2.14.11.11c-.67,1.5-1.36,3.49-1.36,5.2,0,2.09,1.25,3.5,3.3,3.5,4.42,0,10.06-5.58,13.14-8.39l-.27-2.3c-5.42,3.86-7.3,5.42-8.97,5.42-1.2,0-1.56-.67-1.56-1.83,0-3.12,2.97-7.41,4.75-9.7,5.73.38,6.14-1.56,8.59-6.51l-3.24-.27Z"/>
  <path d="m130.23,677.93c2.25,0,4.17-2.56,4.17-4.64,0-.95-.78-1.62-1.72-1.62-2.03,0-4.53,1.88-4.53,4.02,0,1.25.83,2.25,2.08,2.25Zm2.45,10.26c-2.08,1.52-4.8,4.28-7.56,4.28-2.39,0-3.17-1.16-2.77-3.28,2.2-1.51,7.36-6.16,7.36-8.76,0-1.16-1.41-1.47-2.3-1.47-3.12,0-9.64,6.22-9.64,12.58,0,2.66,1.41,6.2,4.49,6.2,3.95,0,8.55-4.69,10.89-7.56l-.47-1.99Z"/>
  <path d="m147.93,690.39c-2.55,1.94-4.58,3.5-7.92,2.92,3.34-2.03,6.78-5.2,6.78-9.49,0-2.3-.78-4.08-1-6.05-.16-1.47-.47-1.94-2.03-1.94-1.88,0-2.86,1.67-2.97,3.39l-11.31,10.38c-.42.42-1.25,1.16-1.25,1.83,0,.47.36,1,.88,1,.47,0,.84-.38,1.16-.69.94,3.81,4.8,5.8,8.3,5.95,4.17.2,9.84-4.55,13.03-7.72l-.52-1.98-3.14,2.39Zm-7.09-8.34c.31,1.78.53,3.19.69,4.28-.16,3.03-1,3.91-4.12,5.84-.98-1.36-2.14-2.97-4.06-3.08l7.5-7.05Z"/>
  <path d="m166.67,690.39c-2.55,1.94-4.58,3.5-7.92,2.92,3.34-2.03,6.78-5.2,6.78-9.49,0-2.3-.78-4.08-1-6.05-.16-1.47-.47-1.94-2.03-1.94-1.88,0-2.86,1.67-2.97,3.39l-11.31,10.38c-.42.42-1.25,1.16-1.25,1.83,0,.47.36,1,.88,1,.47,0,.84-.38,1.16-.69.94,3.81,4.8,5.8,8.3,5.95,4.17.2,9.84-4.55,13.03-7.72l-.51-1.98-3.14,2.39Zm-7.09-8.34c.31,1.78.53,3.19.69,4.28-.16,3.03-1,3.91-4.12,5.84-.99-1.36-2.14-2.97-4.06-3.08l7.5-7.05Z"/>
  <path d="m175.62,686.84c1.41-3.44,4.44-5.94,7.03-6.61.38-.11.62.2.62.56.06.89-3.06,4.48-7.66,6.05Zm13.66.38c-2.76,2.19-7.14,6-10.84,6-1.67,0-3.39-.69-3.23-2.67l.11-1.14c10.02-3.28,12.56-7.14,12.56-9.7,0-2.08-2.08-2.5-3.75-2.5-6.78-.05-14.34,6.94-14.14,13.77.11,3.44,1.88,6.83,5.69,6.83,5.17,0,10.91-4.89,14.08-8.59l-.47-1.98Z"/>
  <path d="m198.12,684.45l.09.11c-2.08,2.5-4.8,5.26-4.8,8.81,0,1.98,1.36,4.02,3.55,4.02,2.98,0,8.98-5.8,10.95-8.03l-.36-1.94c-1.72,1.31-5,4.7-7.25,4.7-.78,0-1.61-.62-1.61-1.47,0-2.08,2.55-4.64,4.06-5.94,1.2-1,2.19-1.78,2.19-3.39-.11-.94-.47-1.78-1.25-2.76-.52-.62-3.39,0-8.3.67.22-.47.38-.94.38-1.45,0-.47-.42-.89-.94-.89-1.27,0-6.58,3.75-6.58,7.51,0,1.09.31,1.5,1.41,1.61-.98,1.41-2.08,2.72-3.44,3.81l.2,2.3c2.25-2.25,4.44-3.61,6.27-6.47l5.42-1.2Z"/>
  <path d="m218.95,677.93c2.25,0,4.17-2.56,4.17-4.64,0-.95-.78-1.62-1.72-1.62-2.03,0-4.53,1.88-4.53,4.02,0,1.25.83,2.25,2.08,2.25Zm2.45,10.26c-2.08,1.52-4.8,4.28-7.56,4.28-2.39,0-3.17-1.16-2.77-3.28,2.2-1.51,7.36-6.16,7.36-8.76,0-1.16-1.41-1.47-2.3-1.47-3.12,0-9.64,6.22-9.64,12.58,0,2.66,1.41,6.2,4.48,6.2,3.95,0,8.55-4.69,10.89-7.56l-.47-1.99Z"/>
  <path d="m226.85,686.84c1.41-3.44,4.44-5.94,7.03-6.61.38-.11.62.2.62.56.06.89-3.06,4.48-7.66,6.05Zm13.66.38c-2.77,2.19-7.14,6-10.84,6-1.67,0-3.39-.69-3.23-2.67l.11-1.14c10.02-3.28,12.56-7.14,12.56-9.7,0-2.08-2.08-2.5-3.75-2.5-6.78-.05-14.34,6.94-14.14,13.77.11,3.44,1.88,6.83,5.69,6.83,5.17,0,10.91-4.89,14.08-8.59l-.47-1.98Z"/>
  <rect x="258" y="680.28" width="15.64" height="4.59"/>
  <path d="m305.25,674.64c.05-1.19,5.84-6.05,19.3-6.52l.11.11c-2.81,1.92-3.81,3.55-3.81,3.64,0,.53.31.78.84.78.41,0,.94-.31,1.3-.51,2.03-1.45,2.45-1.72,4.69-2.55,3.08-1.2,4.39-2.09,4.39-5.95,0-1.05-.16-1.45-1.36-1.72-2.19-.47-4.38-.73-6.56-.73-11.44,0-20.88,4.95-22.48,7.61-.84,1.42-1.67,5.22-1.67,6.94,0,3.14,2.72,3.97,5.31,4.39,2.52.42,16.95,2.5,16.95,5.16,0,.84-5.11,6.22-23.72,5.53v-.11c.31-.31.56-.56.88-.78.38-.2.89-.47.89-.98,0-.31-.16-.36-.42-.36-.78,0-3.86.99-4.48,1.5-.83.78-2.66,3.55-2.66,4.64,0,3.03,6.36,3.03,8.39,3.03,7.52,0,25.72-1.67,25.72-12.05,0-2.56-2.45-5.31-7.72-6.58-14.55-3.39-13.88-3.75-13.88-4.48Z"/>
  <path d="m342.9,689.56l.11.11c-.69,1.41-1.94,4.17-1.94,5.84,0,1.5.78,2.75,2.52,2.75,2.55,0,9.53-5.58,11.78-8.12l-.42-1.94c-2.23,1.52-5.22,4.17-7.41,4.17-.83,0-1.61-.36-1.61-1.25,0-2.45,4.53-6.09,4.53-7.77,0-1.16-.52-1.72-1.52-2.14.47-.16,1.83-.67,1.83-1.31s-.98-2.55-3.39-2.5c-6.05.16-19.61,6.84-19.39,13.36.09,2.7,3.12,6.16,4.58,6.16,1.2,0,4.55-2.72,5.53-3.5l4.8-3.86Zm2.81-7.05l.11.11c-10.33,10.44-11.94,10.28-12.98,10.48-.78.16-.98-.78-1.05-1.05,0-2.55,1.52-5.74,13.92-9.55Z"/>
  <path d="m370.82,687.68c-2.09,1.88-6.11,5.22-8.97,5.22-1.42,0-2.14-1.05-2.61-2.25-.27-1.25-.11-2.7.36-3.59,11.31-10.95,12.67-15.55,13.05-20.5.05-.67-.16-1.94-1.05-1.94-1.67,0-6.62,4.86-11.22,10.55-3.39,4.17-5.73,10.06-5.73,15.53,0,3.08.83,6.78,4.64,6.78,4.48,0,9.39-5.26,12.25-8.23l-.72-1.56Zm-10.17-5.53c2.45-5.38,5.42-10.06,7.98-11.31-.95,2.97-4.17,7.97-7.88,11.42l-.11-.11Z"/>
  <path d="m381.8,682.89c.22.09-2.23,3.39-2.23,6.09,0,.89.25,1.56.62,2.41-1.2,1.09-2.3,2.08-4.02,2.08-1.31,0-2.3-.47-2.3-1.97,0-1.62.98-3.66,2.14-4.81,1.56-1.5,4.02-2.75,5.78-3.8Zm9.61,4.06c-1.62,1.2-3.08,3.19-5.38,2.77.98-2.03,2.03-3.86,2.03-6.16,0-1.56-.31-2.66-1.88-3.08.56-.31,1.19-.62,1.19-1.41,0-1.41-1.72-1.92-2.86-1.88-3.19.16-6.94,1.56-9.75,3.86-2.92,2.23-4.86,4.84-4.75,8.76.2,4.74,2.72,7.45,5.42,7.45,3.28,0,5.84-1.67,8.03-3.91,3.81,0,6.11-1.25,8.45-4.23l-.52-2.19Z"/>
  <path d="m412.61,689.25c-.94.78-3.23,2.61-4.48,2.61-.53,0-.94-.47-.94-.94,0-3.61,6.41-7.56,6.41-9.59-.16-1.09-.47-2.05-.78-2.83-.31-.72-.62-.98-.83-.98-1.52,0-11.11,6.42-15.28,11.73-.22.27-.69.73-1.05.73-.31,0-.58-.26-.58-.58,0-1.25,6.58-6.51,6.58-8.55,0-.31.27-1.05-2.88-1.16-.88,0-1.34.05-2.03.62-3.02,2.56-6.31,7.83-6.16,11.42.06,1.78.62,5.06,2.92,5.06,1.41,0,3.34-2.56,4.12-3.55,2.34-3.03,5-5.74,8.03-7.99l.11.11c-1.67,2.41-4.48,5.84-4.48,8.97,0,1.78.94,3.44,2.91,3.44,3.81,0,9.19-6.41,11.95-8.86l-.42-2.3-3.12,2.61Z"/>
  <path d="m447.95,682.47c-.83,3.08-9.22,9.34-9.86,9.19-.56-.11-.83-.53-.78-1,.31-3.44,1.47-5.22,10.64-8.19Zm11.33-9.86c.83-1.3,2.23-3.44,2.23-5,0-.94-.62-1.98-1.67-1.98-3.8,0-8.39,10.8-10.11,13.77-.69-.78-1.09-1.52-2.19-1.45-4.44.25-14.81,5.47-14.81,11.62,0,1.83,1.45,6.83,3.8,6.83s7.2-5.06,9.03-6.62c-.22,1.31-.42,2.67-.42,3.97,0,1.67.78,3.75,2.77,3.75,3.81,0,9.17-5.47,11.62-8.19l-.36-1.72c-1.67,1.09-6.47,5.33-8.23,5.33-1.16,0-1.2-1.78-1.2-2.61,0-3.34,2.5-6.73,4.22-9.44l5.33-8.25Z"/>
  <path d="m464.48,686.84c1.41-3.44,4.44-5.94,7.03-6.61.38-.11.62.2.62.56.06.89-3.06,4.48-7.66,6.05Zm13.66.38c-2.77,2.19-7.14,6-10.84,6-1.67,0-3.39-.69-3.23-2.67l.11-1.14c10.02-3.28,12.56-7.14,12.56-9.7,0-2.08-2.08-2.5-3.75-2.5-6.78-.05-14.34,6.94-14.14,13.77.11,3.44,1.88,6.83,5.69,6.83,5.17,0,10.91-4.89,14.08-8.59l-.47-1.98Z"/>
  <path d="m510.49,674.95c.53-.72,2.05-2.45,2.05-3.39,0-.83-1-.99-1.67-.99-3.03,0-4.17,2.45-5.73,4.59-5.59.2-6,1.03-8.83,5.62l-.56.94c2.77-.41,1.77-.2,4.95-.2-1.94,3.28-4.8,5.94-7.94,8.34l.58,1.98,2.66-2.14.11.11c-.67,1.5-1.36,3.49-1.36,5.2,0,2.09,1.25,3.5,3.3,3.5,4.42,0,10.06-5.58,13.14-8.39l-.27-2.3c-5.42,3.86-7.3,5.42-8.97,5.42-1.2,0-1.56-.67-1.56-1.83,0-3.12,2.97-7.41,4.75-9.7,5.73.38,6.14-1.56,8.59-6.51l-3.24-.27Z"/>
  <path d="m514.19,688.35c3.34-3.28,19.92-20.5,19.92-24.05,0-1.03-1.41-1.41-2.23-1.41-1.78,0-12.16,9.12-18.31,19.3-1.83,2.99-3.17,5.49-3.17,9.08,0,1.2.25,5.27,2.08,5.27,1.67,0,4.28-5.53,13.2-11.62l.09.11c-1.88,2.44-5.47,6.41-5.47,9.69,0,1.42.83,2.76,2.39,2.76,2.88,0,9.19-5.11,11.58-6.94l-.25-2.12c-1.52.98-5.33,3.8-7.05,3.8-.62,0-1.14-.41-1.14-1.09,0-.52-.16-.67,3.08-4.59.62-.72,2.7-3.01,2.7-4.01,0-1.19-1.25-2.5-2.5-2.5-2.88,0-12.36,8.34-14.92,10.38v-2.03Z"/>
  <path d="m547.8,670.89c-1.56.47-5.02,1.41-6.31,2.25-.62.41-1.45,1.34-1.45,2.12,0,.42.36.47.72.47.53,0,1.2-.2,1.72-.41,1.36-.53,3.5-.89,4.97-1.09,1.92-.26,2.55-.31,4.42-.22,2.14.16,1.99,0,1.83-2.14-.11-1.09.11-2.23-1.2-2.23-.56,0-1.09.16-1.61.31l-3.08.94Zm-8.66,15.95c1.41-3.44,4.44-5.94,7.03-6.61.38-.11.62.2.62.56.06.89-3.06,4.48-7.66,6.05Zm13.66.38c-2.77,2.19-7.14,6-10.84,6-1.67,0-3.39-.69-3.23-2.67l.11-1.14c10.02-3.28,12.56-7.14,12.56-9.7,0-2.08-2.08-2.5-3.75-2.5-6.78-.05-14.34,6.94-14.14,13.77.11,3.44,1.88,6.83,5.69,6.83,5.17,0,10.91-4.89,14.08-8.59l-.47-1.98Z"/>
</svg>